<svg data-v-fde0c5aa="" xmlns="http://www.w3.org/2000/svg" viewBox="0 0 300 300" class="icon"><!----><defs data-v-fde0c5aa=""><!----></defs><rect data-v-fde0c5aa="" fill="#EBF2F2" x="0" y="0" width="300px" height="300px" class="logo-background-square"></rect><!----><defs data-v-fde0c5aa=""><linearGradient data-v-fde0c5aa="" gradientTransform="rotate(25)" id="0a49d92f-cc40-4d89-b25d-365b047cb43a" x1="0%" y1="0%" x2="100%" y2="0%"><stop data-v-fde0c5aa="" offset="0%" stop-color="#050922" stop-opacity="1"></stop><stop data-v-fde0c5aa="" offset="100%" stop-color="#6EE6C7" stop-opacity="1"></stop></linearGradient></defs><g data-v-fde0c5aa="" id="9e6fcfb2-63c7-4211-9ad9-d4e401f25eaf" fill="url(#0a49d92f-cc40-4d89-b25d-365b047cb43a)" stroke="none" transform="matrix(3.4375,0,0,3.4375,40,40.000004917383194)"><path d="M64 9.935c0-2.546-2.033-4.619-4.532-4.619H4.533C2.034 5.317 0 7.389 0 9.935v4.082h64V9.935zM6.252 11.02a1.346 1.346 0 1 1 0-2.692 1.346 1.346 0 0 1 0 2.692zm4.038 0a1.346 1.346 0 1 1 0-2.692 1.346 1.346 0 0 1 0 2.692zm4.039 0a1.346 1.346 0 1 1 0-2.692 1.346 1.346 0 0 1 0 2.692zm41.858-.001h-32.65a1.35 1.35 0 0 1-1.346-1.346c0-.74.606-1.346 1.346-1.346h32.65c.74 0 1.346.606 1.346 1.346a1.35 1.35 0 0 1-1.346 1.346zM64 15.417H0v43.267h64V15.417zM14.717 47.081h-3.472V40.15h3.472v6.931zm5.643 0h-3.472V36.19h3.472v10.891zm5.642 0H22.53V31.734h3.472v15.347zm5.643 0h-3.472V27.278h3.472v19.803zm5.642 0h-3.472V36.19h3.472v10.891zm11.624-.513v3.149h-1.908v-3.059c-1.757-.029-3.574-.575-4.634-1.332l.727-2.029c1.091.727 2.665 1.303 4.362 1.303 2.15 0 3.604-1.242 3.604-2.968 0-1.667-1.181-2.696-3.422-3.605-3.09-1.211-4.998-2.604-4.998-5.239 0-2.515 1.787-4.423 4.573-4.876v-3.059h1.878v2.938c1.817.061 3.059.545 3.938 1.06l-.757 1.999a7.319 7.319 0 0 0-3.816-1.03c-2.333 0-3.211 1.393-3.211 2.604 0 1.576 1.121 2.363 3.756 3.453 3.12 1.271 4.695 2.847 4.695 5.542-.001 2.392-1.667 4.633-4.787 5.149z"></path></g><!----></svg>