<svg data-v-423bf9ae="" xmlns="http://www.w3.org/2000/svg" viewBox="0 0 723 90" class="iconLeftSlogan"><!----><!----><!----><g data-v-423bf9ae="" id="6c398598-6e6d-4a84-b88e-3dd806b8dde1" fill="white" transform="matrix(4.240282799826114,0,0,4.240282799826114,124.45281695540575,-26.07774010015264)"><path d="M7.38 15.86L7.38 17.09L0.82 17.09L0.82 15.93L0.82 15.93Q1.29 15.59 1.81 15.15L1.81 15.15L1.81 15.15Q2.34 14.71 2.87 14.21L2.87 14.21L2.87 14.21Q3.39 13.70 3.87 13.15L3.87 13.15L3.87 13.15Q4.35 12.60 4.72 12.04L4.72 12.04L4.72 12.04Q5.09 11.49 5.31 10.95L5.31 10.95L5.31 10.95Q5.54 10.42 5.54 9.95L5.54 9.95L5.54 9.95Q5.54 9.47 5.37 9.13L5.37 9.13L5.37 9.13Q5.20 8.79 4.93 8.58L4.93 8.58L4.93 8.58Q4.66 8.36 4.31 8.26L4.31 8.26L4.31 8.26Q3.96 8.17 3.59 8.17L3.59 8.17L3.59 8.17Q3.27 8.17 2.94 8.26L2.94 8.26L2.94 8.26Q2.60 8.35 2.29 8.52L2.29 8.52L2.29 8.52Q1.97 8.70 1.68 8.93L1.68 8.93L1.68 8.93Q1.39 9.16 1.16 9.43L1.16 9.43L0.85 8.27L0.85 8.27Q1.06 7.98 1.39 7.74L1.39 7.74L1.39 7.74Q1.72 7.50 2.12 7.32L2.12 7.32L2.12 7.32Q2.52 7.14 2.96 7.04L2.96 7.04L2.96 7.04Q3.40 6.94 3.83 6.94L3.83 6.94L3.83 6.94Q4.44 6.94 5.00 7.14L5.00 7.14L5.00 7.14Q5.56 7.34 5.98 7.71L5.98 7.71L5.98 7.71Q6.41 8.09 6.65 8.62L6.65 8.62L6.65 8.62Q6.90 9.15 6.90 9.81L6.90 9.81L6.90 9.81Q6.90 10.38 6.70 10.98L6.70 10.98L6.70 10.98Q6.49 11.57 6.14 12.14L6.14 12.14L6.14 12.14Q5.79 12.72 5.35 13.27L5.35 13.27L5.35 13.27Q4.90 13.82 4.43 14.31L4.43 14.31L4.43 14.31Q3.96 14.80 3.50 15.22L3.50 15.22L3.50 15.22Q3.04 15.64 2.67 15.96L2.67 15.96L4.41 15.96L4.41 15.96Q4.92 15.96 5.37 15.96L5.37 15.96L5.37 15.96Q5.82 15.96 6.20 15.94L6.20 15.94L6.20 15.94Q6.58 15.93 6.88 15.91L6.88 15.91L6.88 15.91Q7.18 15.89 7.38 15.86L7.38 15.86ZM13.30 8.68L10.00 13.33L13.30 13.33L13.30 8.68ZM15.89 14.39L14.59 14.39L14.59 17.09L13.30 17.09L13.30 14.39L8.82 14.39L8.82 13.33L13.30 6.97L14.59 6.97L14.59 13.33L15.89 13.33L15.89 14.39ZM19.55 17.09L18.29 17.09L18.29 17.09Q18.57 16.13 18.85 15.27L18.85 15.27L18.85 15.27Q19.14 14.42 19.44 13.66L19.44 13.66L19.44 13.66Q19.75 12.89 20.08 12.20L20.08 12.20L20.08 12.20Q20.41 11.50 20.76 10.83L20.76 10.83L20.76 10.83Q21.12 10.17 21.52 9.53L21.52 9.53L21.52 9.53Q21.92 8.89 22.35 8.24L22.35 8.24L19.69 8.24L19.69 8.24Q18.72 8.24 18.10 8.26L18.10 8.26L18.10 8.26Q17.48 8.29 17.09 8.37L17.09 8.37L17.09 7.11L23.86 7.11L23.86 8.20L23.86 8.20Q22.34 10.28 21.28 12.51L21.28 12.51L21.28 12.51Q20.21 14.74 19.55 17.09L19.55 17.09ZM30.39 14.36L30.39 11.66L30.39 11.66Q30.13 11.52 29.91 11.42L29.91 11.42L29.91 11.42Q29.70 11.33 29.48 11.27L29.48 11.27L29.48 11.27Q29.27 11.20 29.05 11.17L29.05 11.17L29.05 11.17Q28.83 11.14 28.57 11.14L28.57 11.14L28.57 11.14Q28.18 11.14 27.83 11.32L27.83 11.32L27.83 11.32Q27.47 11.50 27.20 11.83L27.20 11.83L27.20 11.83Q26.92 12.17 26.76 12.65L26.76 12.65L26.76 12.65Q26.59 13.13 26.59 13.74L26.59 13.74L26.59 13.74Q26.59 14.94 27.00 15.55L27.00 15.55L27.00 15.55Q27.41 16.17 28.30 16.17L28.30 16.17L28.30 16.17Q28.62 16.17 28.93 16.01L28.93 16.01L28.93 16.01Q29.24 15.85 29.51 15.60L29.51 15.60L29.51 15.60Q29.79 15.35 30.02 15.02L30.02 15.02L30.02 15.02Q30.24 14.70 30.39 14.36L30.39 14.36ZM31.65 6.15L31.65 13.47L31.65 13.47Q31.65 14.76 31.80 15.64L31.80 15.64L31.80 15.64Q31.94 16.52 32.16 17.09L32.16 17.09L30.93 17.09L30.93 17.09Q30.86 16.91 30.75 16.56L30.75 16.56L30.75 16.56Q30.65 16.21 30.56 15.83L30.56 15.83L30.56 15.83Q30.06 16.52 29.44 16.89L29.44 16.89L29.44 16.89Q28.82 17.26 28.06 17.26L28.06 17.26L28.06 17.26Q27.43 17.26 26.93 17.02L26.93 17.02L26.93 17.02Q26.43 16.79 26.07 16.35L26.07 16.35L26.07 16.35Q25.71 15.92 25.52 15.31L25.52 15.31L25.52 15.31Q25.33 14.70 25.33 13.95L25.33 13.95L25.33 13.95Q25.33 13.04 25.58 12.30L25.58 12.30L25.58 12.30Q25.83 11.57 26.26 11.06L26.26 11.06L26.26 11.06Q26.70 10.54 27.29 10.26L27.29 10.26L27.29 10.26Q27.88 9.98 28.57 9.98L28.57 9.98L28.57 9.98Q28.79 9.98 29.03 10.03L29.03 10.03L29.03 10.03Q29.26 10.08 29.50 10.16L29.50 10.16L29.50 10.16Q29.74 10.24 29.96 10.35L29.96 10.35L29.96 10.35Q30.19 10.45 30.39 10.56L30.39 10.56L30.39 8.65L30.39 8.65Q30.39 7.82 30.35 7.20L30.35 7.20L30.35 7.20Q30.31 6.58 30.21 6.15L30.21 6.15L31.65 6.15ZM33.80 7.90L33.80 7.90L33.80 7.90Q33.80 7.70 33.87 7.54L33.87 7.54L33.87 7.54Q33.93 7.37 34.04 7.24L34.04 7.24L34.04 7.24Q34.15 7.12 34.31 7.04L34.31 7.04L34.31 7.04Q34.47 6.97 34.66 6.97L34.66 6.97L34.66 6.97Q34.85 6.97 35.01 7.04L35.01 7.04L35.01 7.04Q35.18 7.12 35.29 7.24L35.29 7.24L35.29 7.24Q35.41 7.37 35.48 7.54L35.48 7.54L35.48 7.54Q35.55 7.70 35.55 7.90L35.55 7.90L35.55 7.90Q35.55 8.09 35.48 8.25L35.48 8.25L35.48 8.25Q35.41 8.42 35.29 8.55L35.29 8.55L35.29 8.55Q35.18 8.67 35.01 8.75L35.01 8.75L35.01 8.75Q34.85 8.82 34.66 8.82L34.66 8.82L34.66 8.82Q34.47 8.82 34.31 8.75L34.31 8.75L34.31 8.75Q34.15 8.67 34.04 8.55L34.04 8.55L34.04 8.55Q33.93 8.42 33.87 8.25L33.87 8.25L33.87 8.25Q33.80 8.09 33.80 7.90ZM35.31 10.12L35.31 13.84L35.31 13.84Q35.31 14.17 35.32 14.62L35.32 14.62L35.32 14.62Q35.33 15.07 35.35 15.52L35.35 15.52L35.35 15.52Q35.36 15.98 35.39 16.40L35.39 16.40L35.39 16.40Q35.41 16.82 35.44 17.09L35.44 17.09L34.04 17.09L34.04 13.47L34.04 13.47Q34.04 12.97 34.04 12.48L34.04 12.48L34.04 12.48Q34.04 12.00 34.03 11.56L34.03 11.56L34.03 11.56Q34.02 11.13 34.00 10.76L34.00 10.76L34.00 10.76Q33.97 10.38 33.94 10.12L33.94 10.12L35.31 10.12ZM42.11 14.39L42.11 11.42L42.11 11.42Q41.95 11.35 41.76 11.30L41.76 11.30L41.76 11.30Q41.58 11.25 41.38 11.22L41.38 11.22L41.38 11.22Q41.19 11.18 41.01 11.16L41.01 11.16L41.01 11.16Q40.83 11.14 40.67 11.14L40.67 11.14L40.67 11.14Q40.11 11.14 39.72 11.37L39.72 11.37L39.72 11.37Q39.32 11.60 39.07 11.97L39.07 11.97L39.07 11.97Q38.82 12.35 38.71 12.82L38.71 12.82L38.71 12.82Q38.59 13.29 38.59 13.77L38.59 13.77L38.59 13.77Q38.59 14.41 38.69 14.83L38.69 14.83L38.69 14.83Q38.79 15.25 38.96 15.50L38.96 15.50L38.96 15.50Q39.14 15.75 39.37 15.86L39.37 15.86L39.37 15.86Q39.61 15.96 39.89 15.96L39.89 15.96L39.89 15.96Q40.15 15.96 40.44 15.86L40.44 15.86L40.44 15.86Q40.74 15.75 41.03 15.55L41.03 15.55L41.03 15.55Q41.33 15.35 41.61 15.06L41.61 15.06L41.61 15.06Q41.88 14.77 42.11 14.39L42.11 14.39ZM43.37 10.49L43.37 16.92L43.37 16.92Q43.37 17.82 43.11 18.46L43.11 18.46L43.11 18.46Q42.85 19.11 42.42 19.51L42.42 19.51L42.42 19.51Q41.99 19.92 41.45 20.11L41.45 20.11L41.45 20.11Q40.90 20.30 40.33 20.30L40.33 20.30L40.33 20.30Q39.68 20.30 39.03 20.08L39.03 20.08L39.03 20.08Q38.38 19.85 37.84 19.48L37.84 19.48L38.28 18.42L38.28 18.42Q38.77 18.77 39.26 18.99L39.26 18.99L39.26 18.99Q39.75 19.21 40.26 19.21L40.26 19.21L40.26 19.21Q40.53 19.21 40.85 19.11L40.85 19.11L40.85 19.11Q41.17 19.02 41.45 18.78L41.45 18.78L41.45 18.78Q41.73 18.55 41.92 18.15L41.92 18.15L41.92 18.15Q42.11 17.75 42.11 17.16L42.11 17.16L42.11 15.76L42.11 15.76Q41.84 16.09 41.55 16.35L41.55 16.35L41.55 16.35Q41.25 16.60 40.94 16.78L40.94 16.78L40.94 16.78Q40.64 16.95 40.34 17.04L40.34 17.04L40.34 17.04Q40.03 17.12 39.75 17.12L39.75 17.12L39.75 17.12Q39.28 17.12 38.84 16.96L38.84 16.96L38.84 16.96Q38.40 16.80 38.07 16.44L38.07 16.44L38.07 16.44Q37.73 16.08 37.53 15.50L37.53 15.50L37.53 15.50Q37.32 14.93 37.32 14.12L37.32 14.12L37.32 14.12Q37.32 13.33 37.53 12.58L37.53 12.58L37.53 12.58Q37.73 11.84 38.17 11.26L38.17 11.26L38.17 11.26Q38.60 10.68 39.27 10.33L39.27 10.33L39.27 10.33Q39.94 9.98 40.88 9.98L40.88 9.98L40.88 9.98Q41.19 9.98 41.51 10.02L41.51 10.02L41.51 10.02Q41.84 10.07 42.16 10.14L42.16 10.14L42.16 10.14Q42.48 10.22 42.79 10.31L42.79 10.31L42.79 10.31Q43.09 10.40 43.37 10.49L43.37 10.49ZM45.36 7.90L45.36 7.90L45.36 7.90Q45.36 7.70 45.42 7.54L45.42 7.54L45.42 7.54Q45.48 7.37 45.59 7.24L45.59 7.24L45.59 7.24Q45.71 7.12 45.86 7.04L45.86 7.04L45.86 7.04Q46.02 6.97 46.21 6.97L46.21 6.97L46.21 6.97Q46.40 6.97 46.57 7.04L46.57 7.04L46.57 7.04Q46.73 7.12 46.85 7.24L46.85 7.24L46.85 7.24Q46.96 7.37 47.03 7.54L47.03 7.54L47.03 7.54Q47.10 7.70 47.10 7.90L47.10 7.90L47.10 7.90Q47.10 8.09 47.03 8.25L47.03 8.25L47.03 8.25Q46.96 8.42 46.85 8.55L46.85 8.55L46.85 8.55Q46.73 8.67 46.57 8.75L46.57 8.75L46.57 8.75Q46.40 8.82 46.21 8.82L46.21 8.82L46.21 8.82Q46.02 8.82 45.86 8.75L45.86 8.75L45.86 8.75Q45.71 8.67 45.59 8.55L45.59 8.55L45.59 8.55Q45.48 8.42 45.42 8.25L45.42 8.25L45.42 8.25Q45.36 8.09 45.36 7.90ZM46.86 10.12L46.86 13.84L46.86 13.84Q46.86 14.17 46.87 14.62L46.87 14.62L46.87 14.62Q46.88 15.07 46.90 15.52L46.90 15.52L46.90 15.52Q46.92 15.98 46.94 16.40L46.94 16.40L46.94 16.40Q46.96 16.82 47.00 17.09L47.00 17.09L45.60 17.09L45.60 13.47L45.60 13.47Q45.60 12.97 45.59 12.48L45.59 12.48L45.59 12.48Q45.59 12.00 45.58 11.56L45.58 11.56L45.58 11.56Q45.57 11.13 45.55 10.76L45.55 10.76L45.55 10.76Q45.53 10.38 45.49 10.12L45.49 10.12L46.86 10.12ZM48.36 11.28L48.36 10.29L49.73 10.29L49.73 8.07L51.00 8.07L51.00 10.29L53.22 10.29L53.22 11.28L51.00 11.28L51.00 14.42L51.00 14.42Q51.00 14.95 51.05 15.29L51.05 15.29L51.05 15.29Q51.10 15.62 51.20 15.81L51.20 15.81L51.20 15.81Q51.31 16.00 51.47 16.06L51.47 16.06L51.47 16.06Q51.64 16.13 51.87 16.13L51.87 16.13L51.87 16.13Q52.17 16.13 52.53 16.00L52.53 16.00L52.53 16.00Q52.90 15.87 53.35 15.62L53.35 15.62L53.35 16.71L53.35 16.71Q52.88 17.02 52.45 17.14L52.45 17.14L52.45 17.14Q52.02 17.26 51.66 17.26L51.66 17.26L51.66 17.26Q51.26 17.26 50.91 17.17L50.91 17.17L50.91 17.17Q50.56 17.08 50.30 16.84L50.30 16.84L50.30 16.84Q50.03 16.61 49.88 16.23L49.88 16.23L49.88 16.23Q49.73 15.84 49.73 15.24L49.73 15.24L49.73 11.28L48.36 11.28ZM59.37 12.07L59.37 11.20L59.37 11.20Q59.29 11.18 59.19 11.16L59.19 11.16L59.19 11.16Q59.08 11.14 58.94 11.12L58.94 11.12L58.94 11.12Q58.80 11.09 58.61 11.08L58.61 11.08L58.61 11.08Q58.43 11.07 58.17 11.07L58.17 11.07L58.17 11.07Q57.50 11.07 57.06 11.34L57.06 11.34L57.06 11.34Q56.61 11.61 56.34 12.06L56.34 12.06L56.34 12.06Q56.08 12.51 55.96 13.09L55.96 13.09L55.96 13.09Q55.85 13.67 55.85 14.29L55.85 14.29L55.85 14.29Q55.85 14.68 55.93 15.02L55.93 15.02L55.93 15.02Q56.01 15.35 56.14 15.59L56.14 15.59L56.14 15.59Q56.28 15.83 56.46 15.97L56.46 15.97L56.46 15.97Q56.64 16.10 56.84 16.10L56.84 16.10L56.84 16.10Q57.14 16.10 57.45 15.87L57.45 15.87L57.45 15.87Q57.75 15.63 58.03 15.27L58.03 15.27L58.03 15.27Q58.31 14.90 58.56 14.45L58.56 14.45L58.56 14.45Q58.80 13.99 58.98 13.55L58.98 13.55L58.98 13.55Q59.17 13.10 59.27 12.70L59.27 12.70L59.27 12.70Q59.37 12.30 59.37 12.07L59.37 12.07ZM61.08 17.09L59.88 17.09L59.88 17.09Q59.81 16.93 59.75 16.64L59.75 16.64L59.75 16.64Q59.69 16.35 59.65 16.03L59.65 16.03L59.65 16.03Q59.62 15.70 59.60 15.38L59.60 15.38L59.60 15.38Q59.58 15.06 59.58 14.83L59.58 14.83L59.58 14.29L59.58 14.29Q59.37 14.82 59.09 15.35L59.09 15.35L59.09 15.35Q58.80 15.88 58.44 16.30L58.44 16.30L58.44 16.30Q58.07 16.73 57.62 16.99L57.62 16.99L57.62 16.99Q57.17 17.26 56.64 17.26L56.64 17.26L56.64 17.26Q56.21 17.26 55.83 17.07L55.83 17.07L55.83 17.07Q55.45 16.88 55.18 16.50L55.18 16.50L55.18 16.50Q54.90 16.13 54.74 15.57L54.74 15.57L54.74 15.57Q54.58 15.01 54.58 14.29L54.58 14.29L54.58 14.29Q54.58 13.47 54.80 12.70L54.80 12.70L54.80 12.70Q55.02 11.92 55.47 11.32L55.47 11.32L55.47 11.32Q55.92 10.71 56.62 10.35L56.62 10.35L56.62 10.35Q57.32 9.98 58.28 9.98L58.28 9.98L58.28 9.98Q58.94 9.98 59.53 10.07L59.53 10.07L59.53 10.07Q60.12 10.15 60.63 10.29L60.63 10.29L60.63 13.47L60.63 13.47Q60.63 14.76 60.76 15.64L60.76 15.64L60.76 15.64Q60.88 16.52 61.08 17.09L61.08 17.09ZM64.29 6.15L64.29 13.84L64.29 13.84Q64.29 14.17 64.30 14.62L64.30 14.62L64.30 14.62Q64.31 15.06 64.33 15.52L64.33 15.52L64.33 15.52Q64.35 15.98 64.37 16.39L64.37 16.39L64.37 16.39Q64.39 16.81 64.43 17.09L64.43 17.09L63.03 17.09L63.03 9.37L63.03 9.37Q63.03 8.37 62.99 7.56L62.99 7.56L62.99 7.56Q62.96 6.75 62.89 6.15L62.89 6.15L64.29 6.15ZM71.78 15.31L71.91 16.51L71.91 16.51Q71.65 16.71 71.40 16.85L71.40 16.85L71.40 16.85Q71.14 16.99 70.86 17.08L70.86 17.08L70.86 17.08Q70.58 17.17 70.26 17.22L70.26 17.22L70.26 17.22Q69.94 17.26 69.56 17.26L69.56 17.26L69.56 17.26Q68.87 17.26 68.26 17.02L68.26 17.02L68.26 17.02Q67.66 16.78 67.21 16.32L67.21 16.32L67.21 16.32Q66.76 15.86 66.50 15.21L66.50 15.21L66.50 15.21Q66.24 14.56 66.24 13.74L66.24 13.74L66.24 13.74Q66.24 12.97 66.49 12.28L66.49 12.28L66.49 12.28Q66.74 11.60 67.20 11.09L67.20 11.09L67.20 11.09Q67.66 10.58 68.32 10.28L68.32 10.28L68.32 10.28Q68.98 9.98 69.79 9.98L69.79 9.98L69.79 9.98Q70.48 9.98 70.97 10.14L70.97 10.14L70.97 10.14Q71.47 10.30 71.85 10.56L71.85 10.56L71.61 11.79L71.61 11.79Q71.14 11.45 70.68 11.28L70.68 11.28L70.68 11.28Q70.23 11.11 69.69 11.11L69.69 11.11L69.69 11.11Q69.23 11.11 68.84 11.28L68.84 11.28L68.84 11.28Q68.45 11.46 68.16 11.79L68.16 11.79L68.16 11.79Q67.87 12.11 67.70 12.59L67.70 12.59L67.70 12.59Q67.54 13.07 67.54 13.67L67.54 13.67L67.54 13.67Q67.54 14.23 67.69 14.68L67.69 14.68L67.69 14.68Q67.84 15.13 68.12 15.45L68.12 15.45L68.12 15.45Q68.40 15.78 68.80 15.96L68.80 15.96L68.80 15.96Q69.19 16.13 69.69 16.13L69.69 16.13L69.69 16.13Q70.31 16.13 70.82 15.92L70.82 15.92L70.82 15.92Q71.33 15.71 71.78 15.31L71.78 15.31ZM78.07 12.07L78.07 11.20L78.07 11.20Q77.98 11.18 77.88 11.16L77.88 11.16L77.88 11.16Q77.78 11.14 77.64 11.12L77.64 11.12L77.64 11.12Q77.50 11.09 77.31 11.08L77.31 11.08L77.31 11.08Q77.12 11.07 76.87 11.07L76.87 11.07L76.87 11.07Q76.20 11.07 75.75 11.34L75.75 11.34L75.75 11.34Q75.30 11.61 75.04 12.06L75.04 12.06L75.04 12.06Q74.77 12.51 74.66 13.09L74.66 13.09L74.66 13.09Q74.55 13.67 74.55 14.29L74.55 14.29L74.55 14.29Q74.55 14.68 74.62 15.02L74.62 15.02L74.62 15.02Q74.70 15.35 74.84 15.59L74.84 15.59L74.84 15.59Q74.98 15.83 75.15 15.97L75.15 15.97L75.15 15.97Q75.33 16.10 75.54 16.10L75.54 16.10L75.54 16.10Q75.84 16.10 76.14 15.87L76.14 15.87L76.14 15.87Q76.45 15.63 76.73 15.27L76.73 15.27L76.73 15.27Q77.01 14.90 77.25 14.45L77.25 14.45L77.25 14.45Q77.50 13.99 77.68 13.55L77.68 13.55L77.68 13.55Q77.86 13.10 77.96 12.70L77.96 12.70L77.96 12.70Q78.07 12.30 78.07 12.07L78.07 12.07ZM79.78 17.09L78.58 17.09L78.58 17.09Q78.50 16.93 78.45 16.64L78.45 16.64L78.45 16.64Q78.39 16.35 78.35 16.03L78.35 16.03L78.35 16.03Q78.31 15.70 78.29 15.38L78.29 15.38L78.29 15.38Q78.27 15.06 78.27 14.83L78.27 14.83L78.27 14.29L78.27 14.29Q78.07 14.82 77.78 15.35L77.78 15.35L77.78 15.35Q77.50 15.88 77.13 16.30L77.13 16.30L77.13 16.30Q76.77 16.73 76.32 16.99L76.32 16.99L76.32 16.99Q75.87 17.26 75.33 17.26L75.33 17.26L75.33 17.26Q74.90 17.26 74.53 17.07L74.53 17.07L74.53 17.07Q74.15 16.88 73.87 16.50L73.87 16.50L73.87 16.50Q73.60 16.13 73.44 15.57L73.44 15.57L73.44 15.57Q73.28 15.01 73.28 14.29L73.28 14.29L73.28 14.29Q73.28 13.47 73.50 12.70L73.50 12.70L73.50 12.70Q73.72 11.92 74.17 11.32L74.17 11.32L74.17 11.32Q74.62 10.71 75.32 10.35L75.32 10.35L75.32 10.35Q76.02 9.98 76.97 9.98L76.97 9.98L76.97 9.98Q77.64 9.98 78.22 10.07L78.22 10.07L78.22 10.07Q78.81 10.15 79.33 10.29L79.33 10.29L79.33 13.47L79.33 13.47Q79.33 14.76 79.45 15.64L79.45 15.64L79.45 15.64Q79.58 16.52 79.78 17.09L79.78 17.09ZM86.13 10.53L85.89 11.72L85.89 11.72Q85.72 11.62 85.50 11.51L85.50 11.51L85.50 11.51Q85.29 11.40 85.03 11.30L85.03 11.30L85.03 11.30Q84.77 11.20 84.48 11.14L84.48 11.14L84.48 11.14Q84.19 11.07 83.88 11.07L83.88 11.07L83.88 11.07Q83.50 11.07 83.24 11.16L83.24 11.16L83.24 11.16Q82.99 11.24 82.83 11.36L82.83 11.36L82.83 11.36Q82.68 11.49 82.61 11.65L82.61 11.65L82.61 11.65Q82.54 11.81 82.54 11.96L82.54 11.96L82.54 11.96Q82.54 12.14 82.60 12.28L82.60 12.28L82.60 12.28Q82.65 12.41 82.83 12.53L82.83 12.53L82.83 12.53Q83.00 12.65 83.32 12.76L83.32 12.76L83.32 12.76Q83.64 12.87 84.18 12.99L84.18 12.99L84.18 12.99Q84.65 13.09 85.06 13.25L85.06 13.25L85.06 13.25Q85.47 13.41 85.78 13.66L85.78 13.66L85.78 13.66Q86.08 13.90 86.26 14.25L86.26 14.25L86.26 14.25Q86.44 14.59 86.44 15.07L86.44 15.07L86.44 15.07Q86.44 15.54 86.24 15.93L86.24 15.93L86.24 15.93Q86.03 16.33 85.67 16.63L85.67 16.63L85.67 16.63Q85.32 16.93 84.84 17.09L84.84 17.09L84.84 17.09Q84.36 17.26 83.81 17.26L83.81 17.26L83.81 17.26Q83.39 17.26 83.01 17.20L83.01 17.20L83.01 17.20Q82.62 17.14 82.28 17.03L82.28 17.03L82.28 17.03Q81.94 16.92 81.66 16.78L81.66 16.78L81.66 16.78Q81.38 16.63 81.18 16.47L81.18 16.47L81.52 15.24L81.52 15.24Q81.75 15.45 82.04 15.62L82.04 15.62L82.04 15.62Q82.33 15.79 82.64 15.91L82.64 15.91L82.64 15.91Q82.95 16.04 83.26 16.10L83.26 16.10L83.26 16.10Q83.57 16.17 83.84 16.17L83.84 16.17L83.84 16.17Q84.14 16.17 84.39 16.09L84.39 16.09L84.39 16.09Q84.64 16.01 84.82 15.88L84.82 15.88L84.82 15.88Q85.00 15.76 85.11 15.59L85.11 15.59L85.11 15.59Q85.21 15.42 85.21 15.24L85.21 15.24L85.21 15.24Q85.21 15.05 85.13 14.89L85.13 14.89L85.13 14.89Q85.05 14.72 84.84 14.56L84.84 14.56L84.84 14.56Q84.64 14.41 84.27 14.27L84.27 14.27L84.27 14.27Q83.90 14.12 83.33 13.98L83.33 13.98L83.33 13.98Q82.71 13.83 82.31 13.62L82.31 13.62L82.31 13.62Q81.92 13.42 81.70 13.17L81.70 13.17L81.70 13.17Q81.48 12.93 81.40 12.64L81.40 12.64L81.40 12.64Q81.31 12.35 81.31 12.03L81.31 12.03L81.31 12.03Q81.31 11.87 81.36 11.66L81.36 11.66L81.36 11.66Q81.42 11.45 81.54 11.22L81.54 11.22L81.54 11.22Q81.66 10.99 81.85 10.77L81.85 10.77L81.85 10.77Q82.04 10.55 82.34 10.37L82.34 10.37L82.34 10.37Q82.63 10.20 83.03 10.09L83.03 10.09L83.03 10.09Q83.43 9.98 83.95 9.98L83.95 9.98L83.95 9.98Q84.31 9.98 84.64 10.03L84.64 10.03L84.64 10.03Q84.96 10.08 85.23 10.15L85.23 10.15L85.23 10.15Q85.50 10.23 85.73 10.33L85.73 10.33L85.73 10.33Q85.96 10.43 86.13 10.53L86.13 10.53ZM94.13 17.09L92.87 17.09L92.87 13.33L92.87 13.33Q92.87 12.69 92.78 12.27L92.78 12.27L92.78 12.27Q92.70 11.85 92.52 11.61L92.52 11.61L92.52 11.61Q92.35 11.37 92.10 11.27L92.10 11.27L92.10 11.27Q91.84 11.18 91.50 11.18L91.50 11.18L91.50 11.18Q91.13 11.18 90.78 11.35L90.78 11.35L90.78 11.35Q90.43 11.53 90.13 11.80L90.13 11.80L90.13 11.80Q89.84 12.08 89.61 12.43L89.61 12.43L89.61 12.43Q89.39 12.78 89.28 13.13L89.28 13.13L89.28 17.09L88.01 17.09L88.01 9.37L88.01 9.37Q88.01 8.26 88.00 7.43L88.00 7.43L88.00 7.43Q87.99 6.60 87.91 6.15L87.91 6.15L89.28 6.15L89.28 11.42L89.28 11.42Q89.78 10.70 90.47 10.34L90.47 10.34L90.47 10.34Q91.15 9.98 91.88 9.98L91.88 9.98L91.88 9.98Q92.97 9.98 93.55 10.69L93.55 10.69L93.55 10.69Q94.13 11.41 94.13 12.82L94.13 12.82L94.13 17.09ZM100.15 8.68L96.85 13.33L100.15 13.33L100.15 8.68ZM102.74 14.39L101.45 14.39L101.45 17.09L100.15 17.09L100.15 14.39L95.67 14.39L95.67 13.33L100.15 6.97L101.45 6.97L101.45 13.33L102.74 13.33L102.74 14.39ZM110.71 17.09L109.55 17.09L109.55 17.09Q109.50 16.97 109.44 16.82L109.44 16.82L109.44 16.82Q109.39 16.66 109.34 16.48L109.34 16.48L109.34 16.48Q109.29 16.30 109.24 16.11L109.24 16.11L109.24 16.11Q109.20 15.91 109.17 15.72L109.17 15.72L109.17 15.72Q108.55 16.48 107.89 16.87L107.89 16.87L107.89 16.87Q107.23 17.26 106.50 17.26L106.50 17.26L106.50 17.26Q104.32 17.26 104.32 14.32L104.32 14.32L104.32 12.30L104.32 12.30Q104.32 11.98 104.31 11.71L104.31 11.71L104.31 11.71Q104.31 11.44 104.30 11.19L104.30 11.19L104.30 11.19Q104.28 10.94 104.25 10.68L104.25 10.68L104.25 10.68Q104.23 10.42 104.18 10.12L104.18 10.12L105.58 10.12L105.58 13.91L105.58 13.91Q105.58 14.49 105.64 14.91L105.64 14.91L105.64 14.91Q105.70 15.33 105.83 15.60L105.83 15.60L105.83 15.60Q105.97 15.87 106.19 16.00L106.19 16.00L106.19 16.00Q106.42 16.13 106.74 16.13L106.74 16.13L106.74 16.13Q107.04 16.13 107.39 15.95L107.39 15.95L107.39 15.95Q107.73 15.77 108.04 15.49L108.04 15.49L108.04 15.49Q108.35 15.21 108.61 14.87L108.61 14.87L108.61 14.87Q108.86 14.53 109.00 14.22L109.00 14.22L109.00 12.30L109.00 12.30Q109.00 11.97 109.00 11.70L109.00 11.70L109.00 11.70Q108.99 11.43 108.98 11.18L108.98 11.18L108.98 11.18Q108.96 10.94 108.94 10.68L108.94 10.68L108.94 10.68Q108.91 10.43 108.86 10.12L108.86 10.12L110.26 10.12L110.26 14.01L110.26 14.01Q110.26 15.01 110.38 15.76L110.38 15.76L110.38 15.76Q110.49 16.51 110.71 17.09L110.71 17.09ZM112.62 16.34L112.62 16.34L112.62 16.34Q112.62 16.15 112.69 15.98L112.69 15.98L112.69 15.98Q112.77 15.81 112.89 15.69L112.89 15.69L112.89 15.69Q113.02 15.56 113.19 15.49L113.19 15.49L113.19 15.49Q113.35 15.42 113.54 15.42L113.54 15.42L113.54 15.42Q113.74 15.42 113.90 15.49L113.90 15.49L113.90 15.49Q114.07 15.56 114.20 15.69L114.20 15.69L114.20 15.69Q114.32 15.81 114.40 15.98L114.40 15.98L114.40 15.98Q114.47 16.15 114.47 16.34L114.47 16.34L114.47 16.34Q114.47 16.53 114.40 16.70L114.40 16.70L114.40 16.70Q114.32 16.86 114.20 16.99L114.20 16.99L114.20 16.99Q114.07 17.12 113.90 17.19L113.90 17.19L113.90 17.19Q113.74 17.26 113.54 17.26L113.54 17.26L113.54 17.26Q113.35 17.26 113.19 17.19L113.19 17.19L113.19 17.19Q113.02 17.12 112.89 16.99L112.89 16.99L112.89 16.99Q112.77 16.86 112.69 16.70L112.69 16.70L112.69 16.70Q112.62 16.53 112.62 16.34ZM121.92 15.31L122.06 16.51L122.06 16.51Q121.80 16.71 121.54 16.85L121.54 16.85L121.54 16.85Q121.28 16.99 121.00 17.08L121.00 17.08L121.00 17.08Q120.72 17.17 120.40 17.22L120.40 17.22L120.40 17.22Q120.08 17.26 119.70 17.26L119.70 17.26L119.70 17.26Q119.01 17.26 118.41 17.02L118.41 17.02L118.41 17.02Q117.80 16.78 117.35 16.32L117.35 16.32L117.35 16.32Q116.90 15.86 116.64 15.21L116.64 15.21L116.64 15.21Q116.38 14.56 116.38 13.74L116.38 13.74L116.38 13.74Q116.38 12.97 116.63 12.28L116.63 12.28L116.63 12.28Q116.88 11.60 117.34 11.09L117.34 11.09L117.34 11.09Q117.80 10.58 118.46 10.28L118.46 10.28L118.46 10.28Q119.12 9.98 119.94 9.98L119.94 9.98L119.94 9.98Q120.62 9.98 121.12 10.14L121.12 10.14L121.12 10.14Q121.61 10.30 121.99 10.56L121.99 10.56L121.75 11.79L121.75 11.79Q121.28 11.45 120.83 11.28L120.83 11.28L120.83 11.28Q120.37 11.11 119.83 11.11L119.83 11.11L119.83 11.11Q119.38 11.11 118.98 11.28L118.98 11.28L118.98 11.28Q118.59 11.46 118.30 11.79L118.30 11.79L118.30 11.79Q118.01 12.11 117.84 12.59L117.84 12.59L117.84 12.59Q117.68 13.07 117.68 13.67L117.68 13.67L117.68 13.67Q117.68 14.23 117.83 14.68L117.83 14.68L117.83 14.68Q117.98 15.13 118.26 15.45L118.26 15.45L118.26 15.45Q118.54 15.78 118.94 15.96L118.94 15.96L118.94 15.96Q119.33 16.13 119.83 16.13L119.83 16.13L119.83 16.13Q120.46 16.13 120.96 15.92L120.96 15.92L120.96 15.92Q121.47 15.71 121.92 15.31L121.92 15.31ZM124.62 13.64L124.62 13.64L124.62 13.64Q124.62 14.23 124.76 14.70L124.76 14.70L124.76 14.70Q124.91 15.18 125.17 15.50L125.17 15.50L125.17 15.50Q125.43 15.83 125.79 16.00L125.79 16.00L125.79 16.00Q126.16 16.17 126.60 16.17L126.60 16.17L126.60 16.17Q127.01 16.17 127.37 16.00L127.37 16.00L127.37 16.00Q127.74 15.83 128.01 15.50L128.01 15.50L128.01 15.50Q128.28 15.18 128.43 14.70L128.43 14.70L128.43 14.70Q128.58 14.23 128.58 13.64L128.58 13.64L128.58 13.64Q128.58 13.04 128.44 12.56L128.44 12.56L128.44 12.56Q128.30 12.09 128.03 11.75L128.03 11.75L128.03 11.75Q127.77 11.42 127.40 11.25L127.40 11.25L127.40 11.25Q127.04 11.07 126.60 11.07L126.60 11.07L126.60 11.07Q126.18 11.07 125.82 11.25L125.82 11.25L125.82 11.25Q125.46 11.42 125.19 11.75L125.19 11.75L125.19 11.75Q124.93 12.09 124.77 12.56L124.77 12.56L124.77 12.56Q124.62 13.04 124.62 13.64ZM123.35 13.64L123.35 13.64L123.35 13.64Q123.35 12.76 123.62 12.08L123.62 12.08L123.62 12.08Q123.89 11.40 124.34 10.93L124.34 10.93L124.34 10.93Q124.79 10.46 125.39 10.22L125.39 10.22L125.39 10.22Q125.99 9.98 126.67 9.98L126.67 9.98L126.67 9.98Q127.37 9.98 127.96 10.22L127.96 10.22L127.96 10.22Q128.54 10.46 128.96 10.93L128.96 10.93L128.96 10.93Q129.38 11.40 129.62 12.08L129.62 12.08L129.62 12.08Q129.85 12.76 129.85 13.64L129.85 13.64L129.85 13.64Q129.85 14.52 129.58 15.20L129.58 15.20L129.58 15.20Q129.32 15.87 128.86 16.33L128.86 16.33L128.86 16.33Q128.41 16.79 127.81 17.02L127.81 17.02L127.81 17.02Q127.21 17.26 126.53 17.26L126.53 17.26L126.53 17.26Q125.83 17.26 125.24 17.02L125.24 17.02L125.24 17.02Q124.66 16.79 124.24 16.33L124.24 16.33L124.24 16.33Q123.82 15.87 123.59 15.20L123.59 15.20L123.59 15.20Q123.35 14.52 123.35 13.64ZM136.96 12.58L136.96 17.09L135.69 17.09L135.69 13.19L135.69 13.19Q135.69 12.56 135.65 12.16L135.65 12.16L135.65 12.16Q135.60 11.77 135.48 11.55L135.48 11.55L135.48 11.55Q135.37 11.33 135.18 11.25L135.18 11.25L135.18 11.25Q134.99 11.18 134.70 11.18L134.70 11.18L134.70 11.18Q134.45 11.18 134.20 11.28L134.20 11.28L134.20 11.28Q133.94 11.38 133.71 11.57L133.71 11.57L133.71 11.57Q133.49 11.76 133.29 12.01L133.29 12.01L133.29 12.01Q133.10 12.27 132.96 12.58L132.96 12.58L132.96 17.09L131.69 17.09L131.69 12.89L131.69 12.89Q131.69 11.87 131.58 11.17L131.58 11.17L131.58 11.17Q131.46 10.47 131.35 10.12L131.35 10.12L132.58 10.12L132.58 10.12Q132.66 10.34 132.71 10.63L132.71 10.63L132.71 10.63Q132.77 10.93 132.80 11.18L132.80 11.18L132.80 11.18Q133.12 10.81 133.40 10.58L133.40 10.58L133.40 10.58Q133.69 10.35 133.97 10.22L133.97 10.22L133.97 10.22Q134.26 10.08 134.54 10.03L134.54 10.03L134.54 10.03Q134.82 9.98 135.11 9.98L135.11 9.98L135.11 9.98Q135.45 9.98 135.72 10.08L135.72 10.08L135.72 10.08Q135.99 10.17 136.20 10.33L136.20 10.33L136.20 10.33Q136.41 10.49 136.56 10.69L136.56 10.69L136.56 10.69Q136.71 10.90 136.79 11.13L136.79 11.13L136.79 11.13Q137.12 10.78 137.42 10.56L137.42 10.56L137.42 10.56Q137.72 10.34 138.00 10.21L138.00 10.21L138.00 10.21Q138.29 10.08 138.57 10.03L138.57 10.03L138.57 10.03Q138.84 9.98 139.11 9.98L139.11 9.98L139.11 9.98Q139.63 9.98 139.99 10.15L139.99 10.15L139.99 10.15Q140.34 10.32 140.56 10.64L140.56 10.64L140.56 10.64Q140.77 10.97 140.86 11.46L140.86 11.46L140.86 11.46Q140.96 11.94 140.96 12.58L140.96 12.58L140.96 17.09L139.69 17.09L139.69 13.33L139.69 13.33Q139.69 12.67 139.64 12.25L139.64 12.25L139.64 12.25Q139.60 11.83 139.48 11.59L139.48 11.59L139.48 11.59Q139.37 11.35 139.18 11.27L139.18 11.27L139.18 11.27Q138.99 11.18 138.70 11.18L138.70 11.18L138.70 11.18Q138.45 11.18 138.20 11.28L138.20 11.28L138.20 11.28Q137.96 11.38 137.73 11.56L137.73 11.56L137.73 11.56Q137.50 11.74 137.30 12.00L137.30 12.00L137.30 12.00Q137.11 12.26 136.96 12.58L136.96 12.58Z"></path></g><!----><g data-v-423bf9ae="" id="4cbfdf97-5d72-4d98-ae95-2ed536ddfc3c" transform="matrix(1.686403957083938,0,0,1.686403957083938,0.035073373313984746,-8.648923752687438)" stroke="none" fill="white"><path d="M64 9.935c0-2.546-2.033-4.619-4.532-4.619H4.533C2.034 5.317 0 7.389 0 9.935v4.082h64V9.935zM6.252 11.02a1.346 1.346 0 1 1 0-2.692 1.346 1.346 0 0 1 0 2.692zm4.038 0a1.346 1.346 0 1 1 0-2.692 1.346 1.346 0 0 1 0 2.692zm4.039 0a1.346 1.346 0 1 1 0-2.692 1.346 1.346 0 0 1 0 2.692zm41.858-.001h-32.65a1.35 1.35 0 0 1-1.346-1.346c0-.74.606-1.346 1.346-1.346h32.65c.74 0 1.346.606 1.346 1.346a1.35 1.35 0 0 1-1.346 1.346zM64 15.417H0v43.267h64V15.417zM14.717 47.081h-3.472V40.15h3.472v6.931zm5.643 0h-3.472V36.19h3.472v10.891zm5.642 0H22.53V31.734h3.472v15.347zm5.643 0h-3.472V27.278h3.472v19.803zm5.642 0h-3.472V36.19h3.472v10.891zm11.624-.513v3.149h-1.908v-3.059c-1.757-.029-3.574-.575-4.634-1.332l.727-2.029c1.091.727 2.665 1.303 4.362 1.303 2.15 0 3.604-1.242 3.604-2.968 0-1.667-1.181-2.696-3.422-3.605-3.09-1.211-4.998-2.604-4.998-5.239 0-2.515 1.787-4.423 4.573-4.876v-3.059h1.878v2.938c1.817.061 3.059.545 3.938 1.06l-.757 1.999a7.319 7.319 0 0 0-3.816-1.03c-2.333 0-3.211 1.393-3.211 2.604 0 1.576 1.121 2.363 3.756 3.453 3.12 1.271 4.695 2.847 4.695 5.542-.001 2.392-1.667 4.633-4.787 5.149z"></path></g><!----><g data-v-423bf9ae="" id="e7bf5ed1-5da3-49fa-b054-851c29663882" fill="white" transform="matrix(1.4764934042963465,0,0,1.4764934042963465,125.70034729312775,52.92759833308246)"><path d="M7.20 9.21L7.20 9.21L7.20 9.21Q7.66 9.21 7.92 9.46L7.92 9.46L7.92 9.46Q8.18 9.72 8.18 10.16L8.18 10.16L8.18 10.16Q8.18 10.28 8.15 10.39L8.15 10.39L8.15 10.39Q8.13 10.51 8.11 10.60L8.11 10.60L8.11 10.60Q7.92 10.57 7.70 10.55L7.70 10.55L7.70 10.55Q7.48 10.53 7.17 10.53L7.17 10.53L7.17 10.53Q6.57 10.53 5.95 10.63L5.95 10.63L5.95 10.63Q5.33 10.74 4.77 10.81L4.77 10.81L4.77 10.81Q4.45 11.55 4.19 12.24L4.19 12.24L4.19 12.24Q3.92 12.94 3.73 13.51L3.73 13.51L3.73 13.51Q3.54 14.08 3.44 14.50L3.44 14.50L3.44 14.50Q3.33 14.92 3.32 15.13L3.32 15.13L3.32 15.13Q4.45 14.90 5.61 14.73L5.61 14.73L5.61 14.73Q6.76 14.56 8.04 14.48L8.04 14.48L8.04 14.48Q8.19 14.71 8.29 14.99L8.29 14.99L8.29 14.99Q8.40 15.27 8.40 15.60L8.40 15.60L8.40 15.60Q8.40 15.68 8.40 15.78L8.40 15.78L8.40 15.78Q8.40 15.88 8.37 15.97L8.37 15.97L8.37 15.97Q7.98 15.96 7.55 15.95L7.55 15.95L7.55 15.95Q7.11 15.95 6.41 15.95L6.41 15.95L6.41 15.95Q5.95 15.95 5.54 15.97L5.54 15.97L5.54 15.97Q5.12 15.99 4.70 16.03L4.70 16.03L4.70 16.03Q4.28 16.07 3.81 16.14L3.81 16.14L3.81 16.14Q3.35 16.21 2.76 16.31L2.76 16.31L2.76 16.31Q2.11 16.06 1.51 15.08L1.51 15.08L1.51 15.08Q1.75 14.57 2.18 13.54L2.18 13.54L2.18 13.54Q2.60 12.52 3.26 10.79L3.26 10.79L3.26 10.79Q2.63 10.60 2.44 10.09L2.44 10.09L2.44 10.09Q2.51 10.02 2.84 9.92L2.84 9.92L2.84 9.92Q3.18 9.81 3.67 9.70L3.67 9.70L3.67 9.70Q3.88 9.16 4.03 8.75L4.03 8.75L4.03 8.75Q4.17 8.34 4.28 7.99L4.28 7.99L4.28 7.99Q4.40 7.63 4.49 7.29L4.49 7.29L4.49 7.29Q4.58 6.94 4.66 6.54L4.66 6.54L4.66 6.54Q4.17 6.51 3.89 6.27L3.89 6.27L3.89 6.27Q3.61 6.02 3.61 5.63L3.61 5.63L3.61 5.63Q3.61 5.52 3.65 5.36L3.65 5.36L3.65 5.36Q3.68 5.21 3.72 5.10L3.72 5.10L3.72 5.10Q4.00 5.14 4.26 5.15L4.26 5.15L4.26 5.15Q4.52 5.17 4.94 5.17L4.94 5.17L4.94 5.17Q5.82 5.17 6.59 5.12L6.59 5.12L6.59 5.12Q7.36 5.07 7.99 5.01L7.99 5.01L7.99 5.01Q8.61 4.96 9.06 4.91L9.06 4.91L9.06 4.91Q9.51 4.86 9.74 4.86L9.74 4.86L9.74 4.86Q10.07 4.86 10.32 5.19L10.32 5.19L10.32 5.19Q10.57 5.53 10.70 6.15L10.70 6.15L10.70 6.15Q10.26 6.10 9.99 6.09L9.99 6.09L9.99 6.09Q9.72 6.08 9.51 6.08L9.51 6.08L9.51 6.08Q8.74 6.08 8.10 6.15L8.10 6.15L8.10 6.15Q7.46 6.23 6.87 6.31L6.87 6.31L6.87 6.31Q6.79 6.44 6.69 6.64L6.69 6.64L6.69 6.64Q6.58 6.83 6.41 7.18L6.41 7.18L6.41 7.18Q6.24 7.53 6.00 8.06L6.00 8.06L6.00 8.06Q5.75 8.60 5.40 9.39L5.40 9.39L5.40 9.39Q5.94 9.31 6.41 9.26L6.41 9.26L6.41 9.26Q6.87 9.21 7.20 9.21ZM17.57 16.24L17.57 16.24L17.57 16.24Q16.90 16.04 16.64 15.85L16.64 15.85L16.64 15.85Q16.38 15.65 16.38 15.36L16.38 15.36L16.38 15.36Q16.38 15.13 16.51 14.73L16.51 14.73L16.51 14.73Q16.63 14.32 16.88 13.77L16.88 13.77L16.88 13.77Q17.12 13.22 17.46 12.54L17.46 12.54L17.46 12.54Q17.81 11.87 18.24 11.10L18.24 11.10L18.24 11.10Q17.88 11.09 17.59 11.08L17.59 11.08L17.59 11.08Q17.30 11.07 17.12 11.07L17.12 11.07L17.12 11.07Q17.21 10.86 17.60 10.71L17.60 10.71L17.60 10.71Q17.99 10.56 18.63 10.44L18.63 10.44L18.63 10.44Q19.18 9.53 19.80 8.71L19.80 8.71L19.80 8.71Q20.43 7.88 21.06 7.19L21.06 7.19L21.06 7.19Q21.69 6.50 22.32 5.97L22.32 5.97L22.32 5.97Q22.95 5.45 23.52 5.14L23.52 5.14L23.52 5.14Q23.53 5.04 23.54 4.97L23.54 4.97L23.54 4.97Q23.55 4.90 23.55 4.87L23.55 4.87L23.55 4.87Q23.74 4.87 24.07 4.97L24.07 4.97L24.07 4.97Q24.40 5.07 24.72 5.21L24.72 5.21L24.72 5.21Q25.03 5.35 25.28 5.49L25.28 5.49L25.28 5.49Q25.52 5.64 25.55 5.74L25.55 5.74L25.55 5.74Q25.09 6.55 24.64 8.17L24.64 8.17L24.64 8.17Q24.19 9.79 23.90 12.04L23.90 12.04L23.90 12.04Q23.83 12.60 23.78 13.31L23.78 13.31L23.78 13.31Q23.73 14.03 23.73 14.91L23.73 14.91L23.73 14.91Q23.73 15.22 23.73 15.54L23.73 15.54L23.73 15.54Q23.73 15.86 23.76 16.21L23.76 16.21L23.76 16.21Q23.73 16.23 23.70 16.23L23.70 16.23L23.70 16.23Q23.67 16.23 23.59 16.23L23.59 16.23L23.59 16.23Q23.39 16.23 23.13 16.16L23.13 16.16L23.13 16.16Q22.88 16.10 22.63 16.01L22.63 16.01L22.63 16.01Q22.39 15.92 22.21 15.81L22.21 15.81L22.21 15.81Q22.04 15.69 21.99 15.61L21.99 15.61L21.99 15.61Q21.98 15.43 21.98 15.25L21.98 15.25L21.98 15.25Q21.98 15.08 21.98 14.88L21.98 14.88L21.98 14.88Q21.98 14.01 22.04 13.12L22.04 13.12L22.04 13.12Q22.11 12.22 22.26 11.27L22.26 11.27L22.26 11.27Q22.06 11.26 21.74 11.23L21.74 11.23L21.74 11.23Q21.42 11.21 21.02 11.20L21.02 11.20L21.02 11.20Q20.62 11.19 20.17 11.16L20.17 11.16L20.17 11.16Q19.71 11.14 19.28 11.13L19.28 11.13L19.28 11.13Q18.94 11.76 18.65 12.38L18.65 12.38L18.65 12.38Q18.35 13.01 18.14 13.64L18.14 13.64L18.14 13.64Q17.91 14.31 17.76 14.98L17.76 14.98L17.76 14.98Q17.61 15.65 17.57 16.24ZM22.97 7.83L22.97 7.83L22.97 7.83Q23.03 7.63 23.11 7.29L23.11 7.29L23.11 7.29Q23.18 6.94 23.25 6.57L23.25 6.57L23.25 6.57Q22.90 6.69 22.48 7.03L22.48 7.03L22.48 7.03Q22.05 7.36 21.59 7.86L21.59 7.86L21.59 7.86Q21.14 8.36 20.67 8.98L20.67 8.98L20.67 8.98Q20.20 9.60 19.77 10.30L19.77 10.30L19.77 10.30Q20.94 10.21 22.44 10.18L22.44 10.18L22.44 10.18Q22.55 9.59 22.69 9.01L22.69 9.01L22.69 9.01Q22.82 8.43 22.97 7.83ZM42.45 7.46L42.45 7.46L42.45 7.46Q42.45 8.13 42.15 8.73L42.15 8.73L42.15 8.73Q41.85 9.32 41.31 9.79L41.31 9.79L41.31 9.79Q40.78 10.26 40.07 10.58L40.07 10.58L40.07 10.58Q39.35 10.91 38.51 11.02L38.51 11.02L38.51 11.02Q38.72 11.65 39.02 12.31L39.02 12.31L39.02 12.31Q39.33 12.98 39.68 13.59L39.68 13.59L39.68 13.59Q40.03 14.21 40.40 14.73L40.40 14.73L40.40 14.73Q40.78 15.25 41.15 15.58L41.15 15.58L41.15 15.58Q41.08 15.72 40.94 15.86L40.94 15.86L40.94 15.86Q40.81 16.00 40.63 16.12L40.63 16.12L40.63 16.12Q40.46 16.24 40.27 16.32L40.27 16.32L40.27 16.32Q40.08 16.39 39.91 16.39L39.91 16.39L39.91 16.39Q39.61 16.39 39.33 16.10L39.33 16.10L39.33 16.10Q39.05 15.81 38.76 15.17L38.76 15.17L38.76 15.17Q38.47 14.53 38.16 13.52L38.16 13.52L38.16 13.52Q37.84 12.50 37.46 11.07L37.46 11.07L37.46 11.07Q37.31 11.07 37.16 11.07L37.16 11.07L37.16 11.07Q37.00 11.07 36.92 11.05L36.92 11.05L36.92 11.05Q36.82 10.99 36.71 10.85L36.71 10.85L36.71 10.85Q36.33 11.66 36.04 12.38L36.04 12.38L36.04 12.38Q35.74 13.09 35.51 13.76L35.51 13.76L35.51 13.76Q35.28 14.42 35.10 15.04L35.10 15.04L35.10 15.04Q34.93 15.67 34.80 16.31L34.80 16.31L34.80 16.31Q34.33 16.20 33.98 15.90L33.98 15.90L33.98 15.90Q33.63 15.61 33.32 15.08L33.32 15.08L33.32 15.08Q33.38 14.95 33.44 14.83L33.44 14.83L33.44 14.83Q33.50 14.71 33.60 14.50L33.60 14.50L33.60 14.50Q33.70 14.28 33.84 13.94L33.84 13.94L33.84 13.94Q33.99 13.61 34.24 13.05L34.24 13.05L34.24 13.05Q34.48 12.49 34.83 11.68L34.83 11.68L34.83 11.68Q35.17 10.86 35.66 9.70L35.66 9.70L35.66 9.70Q35.88 9.18 36.04 8.79L36.04 8.79L36.04 8.79Q36.20 8.40 36.33 8.04L36.33 8.04L36.33 8.04Q36.46 7.69 36.56 7.33L36.56 7.33L36.56 7.33Q36.67 6.97 36.78 6.51L36.78 6.51L36.78 6.51Q36.13 6.73 35.58 7.01L35.58 7.01L35.58 7.01Q35.03 7.28 34.66 7.59L34.66 7.59L34.66 7.59Q34.54 7.50 34.41 7.34L34.41 7.34L34.41 7.34Q34.27 7.17 34.16 6.96L34.16 6.96L34.16 6.96Q34.05 6.76 33.96 6.55L33.96 6.55L33.96 6.55Q33.88 6.34 33.87 6.17L33.87 6.17L33.87 6.17Q34.29 5.89 34.89 5.66L34.89 5.66L34.89 5.66Q35.50 5.42 36.19 5.24L36.19 5.24L36.19 5.24Q36.88 5.07 37.59 4.97L37.59 4.97L37.59 4.97Q38.30 4.87 38.92 4.87L38.92 4.87L38.92 4.87Q40.60 4.87 41.52 5.56L41.52 5.56L41.52 5.56Q42.45 6.26 42.45 7.46ZM38.86 6.02L39.03 6.29L39.03 6.29Q38.93 6.41 38.72 6.79L38.72 6.79L38.72 6.79Q38.51 7.17 38.24 7.69L38.24 7.69L38.24 7.69Q37.97 8.22 37.67 8.83L37.67 8.83L37.67 8.83Q37.37 9.45 37.09 10.05L37.09 10.05L37.09 10.05Q38.14 10.05 39.02 9.86L39.02 9.86L39.02 9.86Q39.90 9.66 40.54 9.30L40.54 9.30L40.54 9.30Q41.19 8.95 41.55 8.46L41.55 8.46L41.55 8.46Q41.90 7.98 41.90 7.39L41.90 7.39L41.90 7.39Q41.90 6.69 41.40 6.32L41.40 6.32L41.40 6.32Q40.89 5.95 39.84 5.95L39.84 5.95L39.84 5.95Q39.61 5.95 39.37 5.97L39.37 5.97L39.37 5.97Q39.13 5.99 38.86 6.02L38.86 6.02ZM50.85 16.24L50.85 16.24L50.85 16.24Q50.05 16.00 49.77 15.79L49.77 15.79L49.77 15.79Q49.49 15.57 49.49 15.19L49.49 15.19L49.49 15.19Q49.49 14.77 49.69 14.01L49.69 14.01L49.69 14.01Q49.88 13.24 50.20 12.31L50.20 12.31L50.20 12.31Q50.51 11.37 50.92 10.35L50.92 10.35L50.92 10.35Q51.32 9.32 51.74 8.39L51.74 8.39L51.74 8.39Q52.16 7.45 52.56 6.67L52.56 6.67L52.56 6.67Q52.96 5.89 53.27 5.46L53.27 5.46L53.17 4.87L53.17 4.87Q53.37 4.87 53.72 4.97L53.72 4.97L53.72 4.97Q54.07 5.07 54.43 5.21L54.43 5.21L54.43 5.21Q54.78 5.35 55.05 5.49L55.05 5.49L55.05 5.49Q55.33 5.64 55.36 5.74L55.36 5.74L55.36 5.74Q55.29 6.08 55.24 6.76L55.24 6.76L55.24 6.76Q55.20 7.43 55.20 8.20L55.20 8.20L55.20 8.20Q55.20 9.73 55.32 11.19L55.32 11.19L55.32 11.19Q55.44 12.66 55.87 14.17L55.87 14.17L55.87 14.17Q56.10 13.05 56.36 11.94L56.36 11.94L56.36 11.94Q56.62 10.82 56.90 9.81L56.90 9.81L56.90 9.81Q57.18 8.79 57.46 7.92L57.46 7.92L57.46 7.92Q57.74 7.06 58.00 6.40L58.00 6.40L58.00 6.40Q58.25 5.75 58.48 5.38L58.48 5.38L58.48 5.38Q58.70 5.01 58.88 4.98L58.88 4.98L58.88 4.98Q59.04 5.01 59.22 5.10L59.22 5.10L59.22 5.10Q59.40 5.19 59.57 5.32L59.57 5.32L59.57 5.32Q59.74 5.45 59.88 5.60L59.88 5.60L59.88 5.60Q60.02 5.75 60.10 5.91L60.10 5.91L60.10 5.91Q59.65 6.09 59.21 6.76L59.21 6.76L59.21 6.76Q58.77 7.43 58.37 8.39L58.37 8.39L58.37 8.39Q57.97 9.35 57.63 10.47L57.63 10.47L57.63 10.47Q57.29 11.59 57.03 12.68L57.03 12.68L57.03 12.68Q56.77 13.76 56.62 14.69L56.62 14.69L56.62 14.69Q56.48 15.61 56.46 16.17L56.46 16.17L56.46 16.17Q56.46 16.20 56.48 16.21L56.48 16.21L56.48 16.21Q56.43 16.23 56.39 16.23L56.39 16.23L56.39 16.23Q56.34 16.23 56.29 16.23L56.29 16.23L56.29 16.23Q55.65 16.23 55.15 16.07L55.15 16.07L55.15 16.07Q54.66 15.90 54.50 15.61L54.50 15.61L54.50 15.61Q54.21 14.43 54.01 13.34L54.01 13.34L54.01 13.34Q53.82 12.25 53.68 11.16L53.68 11.16L53.68 11.16Q53.55 10.07 53.47 8.95L53.47 8.95L53.47 8.95Q53.40 7.84 53.35 6.62L53.35 6.62L53.35 6.62Q53.09 7.04 52.79 7.72L52.79 7.72L52.79 7.72Q52.50 8.40 52.22 9.21L52.22 9.21L52.22 9.21Q51.94 10.02 51.68 10.92L51.68 10.92L51.68 10.92Q51.42 11.82 51.23 12.67L51.23 12.67L51.23 12.67Q51.03 13.52 50.92 14.29L50.92 14.29L50.92 14.29Q50.81 15.05 50.81 15.61L50.81 15.61L50.81 15.61Q50.81 15.90 50.81 16.03L50.81 16.03L50.81 16.03Q50.82 16.16 50.85 16.24ZM77.13 16.24L77.13 16.24L77.13 16.24Q76.45 16.04 76.19 15.85L76.19 15.85L76.19 15.85Q75.94 15.65 75.94 15.36L75.94 15.36L75.94 15.36Q75.94 15.13 76.06 14.73L76.06 14.73L76.06 14.73Q76.19 14.32 76.43 13.77L76.43 13.77L76.43 13.77Q76.68 13.22 77.02 12.54L77.02 12.54L77.02 12.54Q77.36 11.87 77.80 11.10L77.80 11.10L77.80 11.10Q77.43 11.09 77.15 11.08L77.15 11.08L77.15 11.08Q76.86 11.07 76.68 11.07L76.68 11.07L76.68 11.07Q76.76 10.86 77.15 10.71L77.15 10.71L77.15 10.71Q77.55 10.56 78.19 10.44L78.19 10.44L78.19 10.44Q78.74 9.53 79.36 8.71L79.36 8.71L79.36 8.71Q79.98 7.88 80.61 7.19L80.61 7.19L80.61 7.19Q81.24 6.50 81.87 5.97L81.87 5.97L81.87 5.97Q82.50 5.45 83.08 5.14L83.08 5.14L83.08 5.14Q83.09 5.04 83.10 4.97L83.10 4.97L83.10 4.97Q83.10 4.90 83.10 4.87L83.10 4.87L83.10 4.87Q83.30 4.87 83.63 4.97L83.63 4.97L83.63 4.97Q83.96 5.07 84.27 5.21L84.27 5.21L84.27 5.21Q84.59 5.35 84.83 5.49L84.83 5.49L84.83 5.49Q85.08 5.64 85.11 5.74L85.11 5.74L85.11 5.74Q84.64 6.55 84.20 8.17L84.20 8.17L84.20 8.17Q83.75 9.79 83.45 12.04L83.45 12.04L83.45 12.04Q83.38 12.60 83.33 13.31L83.33 13.31L83.33 13.31Q83.29 14.03 83.29 14.91L83.29 14.91L83.29 14.91Q83.29 15.22 83.29 15.54L83.29 15.54L83.29 15.54Q83.29 15.86 83.31 16.21L83.31 16.21L83.31 16.21Q83.29 16.23 83.26 16.23L83.26 16.23L83.26 16.23Q83.23 16.23 83.15 16.23L83.15 16.23L83.15 16.23Q82.95 16.23 82.69 16.16L82.69 16.16L82.69 16.16Q82.43 16.10 82.19 16.01L82.19 16.01L82.19 16.01Q81.94 15.92 81.77 15.81L81.77 15.81L81.77 15.81Q81.59 15.69 81.55 15.61L81.55 15.61L81.55 15.61Q81.54 15.43 81.54 15.25L81.54 15.25L81.54 15.25Q81.54 15.08 81.54 14.88L81.54 14.88L81.54 14.88Q81.54 14.01 81.60 13.12L81.60 13.12L81.60 13.12Q81.66 12.22 81.82 11.27L81.82 11.27L81.82 11.27Q81.62 11.26 81.30 11.23L81.30 11.23L81.30 11.23Q80.98 11.21 80.58 11.20L80.58 11.20L80.58 11.20Q80.18 11.19 79.72 11.16L79.72 11.16L79.72 11.16Q79.27 11.14 78.83 11.13L78.83 11.13L78.83 11.13Q78.50 11.76 78.20 12.38L78.20 12.38L78.20 12.38Q77.91 13.01 77.70 13.64L77.70 13.64L77.70 13.64Q77.46 14.31 77.31 14.98L77.31 14.98L77.31 14.98Q77.17 15.65 77.13 16.24ZM82.53 7.83L82.53 7.83L82.53 7.83Q82.59 7.63 82.66 7.29L82.66 7.29L82.66 7.29Q82.74 6.94 82.81 6.57L82.81 6.57L82.81 6.57Q82.46 6.69 82.03 7.03L82.03 7.03L82.03 7.03Q81.61 7.36 81.15 7.86L81.15 7.86L81.15 7.86Q80.70 8.36 80.23 8.98L80.23 8.98L80.23 8.98Q79.76 9.60 79.32 10.30L79.32 10.30L79.32 10.30Q80.50 10.21 82.00 10.18L82.00 10.18L82.00 10.18Q82.11 9.59 82.24 9.01L82.24 9.01L82.24 9.01Q82.38 8.43 82.53 7.83ZM93.73 16.24L93.73 16.24L93.73 16.24Q92.93 16.00 92.65 15.79L92.65 15.79L92.65 15.79Q92.37 15.57 92.37 15.19L92.37 15.19L92.37 15.19Q92.37 14.77 92.57 14.01L92.57 14.01L92.57 14.01Q92.76 13.24 93.08 12.31L93.08 12.31L93.08 12.31Q93.39 11.37 93.80 10.35L93.80 10.35L93.80 10.35Q94.21 9.32 94.63 8.39L94.63 8.39L94.63 8.39Q95.05 7.45 95.44 6.67L95.44 6.67L95.44 6.67Q95.84 5.89 96.15 5.46L96.15 5.46L96.05 4.87L96.05 4.87Q96.25 4.87 96.60 4.97L96.60 4.97L96.60 4.97Q96.95 5.07 97.31 5.21L97.31 5.21L97.31 5.21Q97.66 5.35 97.94 5.49L97.94 5.49L97.94 5.49Q98.21 5.64 98.24 5.74L98.24 5.74L98.24 5.74Q98.17 6.08 98.13 6.76L98.13 6.76L98.13 6.76Q98.08 7.43 98.08 8.20L98.08 8.20L98.08 8.20Q98.08 9.73 98.20 11.19L98.20 11.19L98.20 11.19Q98.32 12.66 98.76 14.17L98.76 14.17L98.76 14.17Q98.98 13.05 99.24 11.94L99.24 11.94L99.24 11.94Q99.50 10.82 99.78 9.81L99.78 9.81L99.78 9.81Q100.06 8.79 100.34 7.92L100.34 7.92L100.34 7.92Q100.62 7.06 100.88 6.40L100.88 6.40L100.88 6.40Q101.14 5.75 101.36 5.38L101.36 5.38L101.36 5.38Q101.58 5.01 101.77 4.98L101.77 4.98L101.77 4.98Q101.92 5.01 102.10 5.10L102.10 5.10L102.10 5.10Q102.28 5.19 102.45 5.32L102.45 5.32L102.45 5.32Q102.62 5.45 102.76 5.60L102.76 5.60L102.76 5.60Q102.90 5.75 102.98 5.91L102.98 5.91L102.98 5.91Q102.54 6.09 102.09 6.76L102.09 6.76L102.09 6.76Q101.65 7.43 101.25 8.39L101.25 8.39L101.25 8.39Q100.86 9.35 100.51 10.47L100.51 10.47L100.51 10.47Q100.17 11.59 99.91 12.68L99.91 12.68L99.91 12.68Q99.65 13.76 99.50 14.69L99.50 14.69L99.50 14.69Q99.36 15.61 99.34 16.17L99.34 16.17L99.34 16.17Q99.34 16.20 99.36 16.21L99.36 16.21L99.36 16.21Q99.32 16.23 99.27 16.23L99.27 16.23L99.27 16.23Q99.22 16.23 99.18 16.23L99.18 16.23L99.18 16.23Q98.53 16.23 98.03 16.07L98.03 16.07L98.03 16.07Q97.54 15.90 97.38 15.61L97.38 15.61L97.38 15.61Q97.09 14.43 96.89 13.34L96.89 13.34L96.89 13.34Q96.70 12.25 96.56 11.16L96.56 11.16L96.56 11.16Q96.43 10.07 96.35 8.95L96.35 8.95L96.35 8.95Q96.28 7.84 96.24 6.62L96.24 6.62L96.24 6.62Q95.97 7.04 95.68 7.72L95.68 7.72L95.68 7.72Q95.38 8.40 95.10 9.21L95.10 9.21L95.10 9.21Q94.82 10.02 94.56 10.92L94.56 10.92L94.56 10.92Q94.30 11.82 94.11 12.67L94.11 12.67L94.11 12.67Q93.91 13.52 93.80 14.29L93.80 14.29L93.80 14.29Q93.69 15.05 93.69 15.61L93.69 15.61L93.69 15.61Q93.69 15.90 93.69 16.03L93.69 16.03L93.69 16.03Q93.70 16.16 93.73 16.24ZM114.21 10.35L114.21 10.35L114.21 10.35Q115.26 9.20 116.09 7.91L116.09 7.91L116.09 7.91Q116.93 6.62 117.64 5.01L117.64 5.01L117.64 5.01Q118.01 5.05 118.34 5.21L118.34 5.21L118.34 5.21Q118.68 5.36 118.87 5.56L118.87 5.56L118.87 5.56Q118.10 6.48 117.48 7.24L117.48 7.24L117.48 7.24Q116.86 7.99 116.34 8.66L116.34 8.66L116.34 8.66Q115.82 9.32 115.38 9.93L115.38 9.93L115.38 9.93Q114.94 10.54 114.52 11.16L114.52 11.16L114.52 11.16Q114.31 11.87 114.13 12.60L114.13 12.60L114.13 12.60Q113.95 13.33 113.81 13.99L113.81 13.99L113.81 13.99Q113.67 14.66 113.59 15.22L113.59 15.22L113.59 15.22Q113.51 15.79 113.51 16.20L113.51 16.20L113.51 16.20Q113.36 16.20 113.02 16.14L113.02 16.14L113.02 16.14Q112.69 16.07 112.34 15.99L112.34 15.99L112.34 15.99Q111.99 15.90 111.70 15.82L111.70 15.82L111.70 15.82Q111.41 15.74 111.36 15.68L111.36 15.68L111.36 15.68Q111.58 15.30 111.80 14.75L111.80 14.75L111.80 14.75Q112.01 14.20 112.22 13.59L112.22 13.59L112.22 13.59Q112.43 12.98 112.63 12.36L112.63 12.36L112.63 12.36Q112.83 11.73 112.99 11.20L112.99 11.20L112.99 11.20Q112.64 10.11 112.31 9.15L112.31 9.15L112.31 9.15Q111.99 8.19 111.68 7.41L111.68 7.41L111.68 7.41Q111.37 6.64 111.09 6.08L111.09 6.08L111.09 6.08Q110.81 5.52 110.56 5.22L110.56 5.22L110.56 5.22Q110.70 5.17 110.98 5.11L110.98 5.11L110.98 5.11Q111.27 5.05 111.61 5.00L111.61 5.00L111.61 5.00Q111.96 4.94 112.31 4.91L112.31 4.91L112.31 4.91Q112.67 4.87 112.95 4.86L112.95 4.86L112.95 4.86Q112.95 5.21 113.01 5.71L113.01 5.71L113.01 5.71Q113.08 6.22 113.18 6.79L113.18 6.79L113.18 6.79Q113.29 7.36 113.43 7.95L113.43 7.95L113.43 7.95Q113.57 8.54 113.71 9.03L113.71 9.03L113.71 9.03Q113.85 9.52 113.98 9.88L113.98 9.88L113.98 9.88Q114.11 10.23 114.21 10.35ZM126.42 15.61L126.42 15.61L126.42 15.61Q126.35 15.04 126.31 14.36L126.31 14.36L126.31 14.36Q126.28 13.68 126.28 13.09L126.28 13.09L126.28 13.09Q126.28 12.15 126.34 11.29L126.34 11.29L126.34 11.29Q126.41 10.43 126.50 9.48L126.50 9.48L126.50 9.48Q126.59 8.54 126.70 7.43L126.70 7.43L126.70 7.43Q126.81 6.31 126.90 4.86L126.90 4.86L126.90 4.86Q127.08 4.86 127.42 4.96L127.42 4.96L127.42 4.96Q127.76 5.07 128.11 5.21L128.11 5.21L128.11 5.21Q128.46 5.35 128.73 5.49L128.73 5.49L128.73 5.49Q129.00 5.64 129.04 5.74L129.04 5.74L129.04 5.74Q128.80 6.29 128.61 7.18L128.61 7.18L128.61 7.18Q128.42 8.06 128.30 9.11L128.30 9.11L128.30 9.11Q128.17 10.16 128.10 11.27L128.10 11.27L128.10 11.27Q128.03 12.38 128.03 13.34L128.03 13.34L128.03 13.34Q128.03 13.79 128.04 14.22L128.04 14.22L128.04 14.22Q128.06 14.66 128.09 15.02L128.09 15.02L128.09 15.02Q128.38 14.59 128.76 13.78L128.76 13.78L128.76 13.78Q129.15 12.98 129.56 11.98L129.56 11.98L129.56 11.98Q129.98 10.99 130.39 9.91L130.39 9.91L130.39 9.91Q130.80 8.82 131.15 7.83L131.15 7.83L131.15 7.83Q131.50 6.85 131.75 6.05L131.75 6.05L131.75 6.05Q131.99 5.26 132.09 4.86L132.09 4.86L132.09 4.86Q132.27 4.86 132.63 4.96L132.63 4.96L132.63 4.96Q132.99 5.07 133.33 5.21L133.33 5.21L133.33 5.21Q133.67 5.35 133.94 5.49L133.94 5.49L133.94 5.49Q134.20 5.64 134.23 5.74L134.23 5.74L134.23 5.74Q133.99 6.29 133.81 7.18L133.81 7.18L133.81 7.18Q133.62 8.06 133.49 9.11L133.49 9.11L133.49 9.11Q133.36 10.16 133.29 11.27L133.29 11.27L133.29 11.27Q133.22 12.38 133.22 13.34L133.22 13.34L133.22 13.34Q133.22 13.75 133.23 14.15L133.23 14.15L133.23 14.15Q133.24 14.55 133.27 14.87L133.27 14.87L133.27 14.87Q133.71 13.71 134.20 12.56L134.20 12.56L134.20 12.56Q134.68 11.42 135.16 10.38L135.16 10.38L135.16 10.38Q135.63 9.34 136.08 8.43L136.08 8.43L136.08 8.43Q136.53 7.53 136.91 6.82L136.91 6.82L136.91 6.82Q137.28 6.12 137.56 5.66L137.56 5.66L137.56 5.66Q137.84 5.19 138.00 5.04L138.00 5.04L138.00 5.04Q138.32 5.08 138.66 5.27L138.66 5.27L138.66 5.27Q139.01 5.46 139.27 5.75L139.27 5.75L139.27 5.75Q138.87 6.08 138.35 6.81L138.35 6.81L138.35 6.81Q137.83 7.55 137.28 8.51L137.28 8.51L137.28 8.51Q136.74 9.48 136.19 10.57L136.19 10.57L136.19 10.57Q135.63 11.66 135.16 12.70L135.16 12.70L135.16 12.70Q134.68 13.73 134.31 14.63L134.31 14.63L134.31 14.63Q133.94 15.53 133.74 16.07L133.74 16.07L133.74 16.07Q133.38 16.24 133.03 16.24L133.03 16.24L133.03 16.24Q132.58 16.18 132.18 16.02L132.18 16.02L132.18 16.02Q131.78 15.85 131.61 15.61L131.61 15.61L131.61 15.61Q131.57 15.39 131.54 15.09L131.54 15.09L131.54 15.09Q131.52 14.78 131.50 14.49L131.50 14.49L131.50 14.49Q131.49 14.20 131.48 13.92L131.48 13.92L131.48 13.92Q131.47 13.65 131.47 13.45L131.47 13.45L131.47 13.45Q131.47 12.21 131.57 10.91L131.57 10.91L131.57 10.91Q131.67 9.62 131.81 8.13L131.81 8.13L131.81 8.13Q131.49 9.09 131.10 10.18L131.10 10.18L131.10 10.18Q130.70 11.27 130.28 12.34L130.28 12.34L130.28 12.34Q129.85 13.41 129.41 14.38L129.41 14.38L129.41 14.38Q128.97 15.36 128.55 16.07L128.55 16.07L128.55 16.07Q128.18 16.24 127.83 16.24L127.83 16.24L127.83 16.24Q127.39 16.18 126.99 16.02L126.99 16.02L126.99 16.02Q126.59 15.85 126.42 15.61ZM150.43 14.36L150.43 14.36L150.43 14.36Q150.43 13.78 150.63 12.85L150.63 12.85L150.63 12.85Q150.82 11.93 151.14 10.88L151.14 10.88L151.14 10.88Q150.22 10.95 149.29 11.06L149.29 11.06L149.29 11.06Q148.36 11.17 147.67 11.19L147.67 11.19L147.67 11.19Q147.04 12.66 146.67 13.89L146.67 13.89L146.67 13.89Q146.30 15.13 146.09 16.31L146.09 16.31L146.09 16.31Q145.56 16.18 145.21 15.87L145.21 15.87L145.21 15.87Q144.86 15.55 144.56 15.08L144.56 15.08L144.56 15.08Q144.68 14.85 144.82 14.50L144.82 14.50L144.82 14.50Q144.97 14.15 145.17 13.66L145.17 13.66L145.17 13.66Q145.38 13.16 145.64 12.50L145.64 12.50L145.64 12.50Q145.89 11.83 146.23 10.95L146.23 10.95L146.23 10.95Q145.77 10.75 145.61 10.40L145.61 10.40L145.61 10.40Q145.68 10.35 145.93 10.28L145.93 10.28L145.93 10.28Q146.17 10.22 146.54 10.15L146.54 10.15L146.72 9.70L146.72 9.70Q147.01 8.95 147.20 8.43L147.20 8.43L147.20 8.43Q147.39 7.91 147.53 7.41L147.53 7.41L147.53 7.41Q147.66 6.92 147.78 6.31L147.78 6.31L147.78 6.31Q147.90 5.71 148.06 4.79L148.06 4.79L148.06 4.79Q148.65 4.90 149.14 5.31L149.14 5.31L149.14 5.31Q149.62 5.71 149.97 6.29L149.97 6.29L149.97 6.29Q149.84 6.45 149.66 6.79L149.66 6.79L149.66 6.79Q149.48 7.13 149.26 7.59L149.26 7.59L149.26 7.59Q149.04 8.06 148.79 8.64L148.79 8.64L148.79 8.64Q148.54 9.23 148.25 9.87L148.25 9.87L148.25 9.87Q149.11 9.76 150.00 9.66L150.00 9.66L150.00 9.66Q150.89 9.56 151.58 9.52L151.58 9.52L151.58 9.52Q151.83 8.79 152.10 8.10L152.10 8.10L152.10 8.10Q152.38 7.41 152.64 6.83L152.64 6.83L152.64 6.83Q152.91 6.26 153.15 5.82L153.15 5.82L153.15 5.82Q153.40 5.39 153.59 5.18L153.59 5.18L153.59 5.18Q153.73 5.19 153.97 5.29L153.97 5.29L153.97 5.29Q154.20 5.38 154.43 5.50L154.43 5.50L154.43 5.50Q154.67 5.63 154.87 5.78L154.87 5.78L154.87 5.78Q155.06 5.92 155.13 6.05L155.13 6.05L155.13 6.05Q154.88 6.29 154.63 6.66L154.63 6.66L154.63 6.66Q154.38 7.04 154.13 7.53L154.13 7.53L154.13 7.53Q153.89 8.02 153.65 8.60L153.65 8.60L153.65 8.60Q153.41 9.17 153.20 9.79L153.20 9.79L153.20 9.79Q153.48 10.04 153.48 10.42L153.48 10.42L153.48 10.42Q153.48 10.68 153.37 10.91L153.37 10.91L153.37 10.91Q153.24 10.88 153.12 10.87L153.12 10.87L153.12 10.87Q152.99 10.86 152.85 10.85L152.85 10.85L152.85 10.85Q152.61 11.61 152.42 12.35L152.42 12.35L152.42 12.35Q152.22 13.09 152.09 13.76L152.09 13.76L152.09 13.76Q151.96 14.43 151.88 14.99L151.88 14.99L151.88 14.99Q151.80 15.55 151.80 15.93L151.80 15.93L151.80 15.93Q151.80 16.07 151.81 16.16L151.81 16.16L151.81 16.16Q151.82 16.24 151.83 16.30L151.83 16.30L151.83 16.30Q151.52 16.28 151.38 16.19L151.38 16.19L151.38 16.19Q151.24 16.10 151.17 16.00L151.17 16.00L151.17 16.00Q151.10 15.89 151.05 15.79L151.05 15.79L151.05 15.79Q150.99 15.68 150.86 15.62L150.86 15.62L150.86 15.62Q150.77 15.58 150.68 15.43L150.68 15.43L150.68 15.43Q150.60 15.27 150.54 15.08L150.54 15.08L150.54 15.08Q150.49 14.88 150.46 14.69L150.46 14.69L150.46 14.69Q150.43 14.49 150.43 14.36ZM167.20 9.21L167.20 9.21L167.20 9.21Q167.66 9.21 167.92 9.46L167.92 9.46L167.92 9.46Q168.18 9.72 168.18 10.16L168.18 10.16L168.18 10.16Q168.18 10.28 168.16 10.39L168.16 10.39L168.16 10.39Q168.14 10.51 168.11 10.60L168.11 10.60L168.11 10.60Q167.93 10.57 167.71 10.55L167.71 10.55L167.71 10.55Q167.48 10.53 167.17 10.53L167.17 10.53L167.17 10.53Q166.57 10.53 165.96 10.63L165.96 10.63L165.96 10.63Q165.34 10.74 164.78 10.81L164.78 10.81L164.78 10.81Q164.46 11.55 164.19 12.24L164.19 12.24L164.19 12.24Q163.93 12.94 163.74 13.51L163.74 13.51L163.74 13.51Q163.55 14.08 163.44 14.50L163.44 14.50L163.44 14.50Q163.34 14.92 163.32 15.13L163.32 15.13L163.32 15.13Q164.46 14.90 165.61 14.73L165.61 14.73L165.61 14.73Q166.77 14.56 168.04 14.48L168.04 14.48L168.04 14.48Q168.20 14.71 168.30 14.99L168.30 14.99L168.30 14.99Q168.41 15.27 168.41 15.60L168.41 15.60L168.41 15.60Q168.41 15.68 168.41 15.78L168.41 15.78L168.41 15.78Q168.41 15.88 168.38 15.97L168.38 15.97L168.38 15.97Q167.99 15.96 167.55 15.95L167.55 15.95L167.55 15.95Q167.12 15.95 166.42 15.95L166.42 15.95L166.42 15.95Q165.96 15.95 165.54 15.97L165.54 15.97L165.54 15.97Q165.13 15.99 164.71 16.03L164.71 16.03L164.71 16.03Q164.29 16.07 163.82 16.14L163.82 16.14L163.82 16.14Q163.35 16.21 162.76 16.31L162.76 16.31L162.76 16.31Q162.12 16.06 161.52 15.08L161.52 15.08L161.52 15.08Q161.76 14.57 162.18 13.54L162.18 13.54L162.18 13.54Q162.61 12.52 163.27 10.79L163.27 10.79L163.27 10.79Q162.64 10.60 162.44 10.09L162.44 10.09L162.44 10.09Q162.51 10.02 162.85 9.92L162.85 9.92L162.85 9.92Q163.18 9.81 163.67 9.70L163.67 9.70L163.67 9.70Q163.88 9.16 164.03 8.75L164.03 8.75L164.03 8.75Q164.18 8.34 164.29 7.99L164.29 7.99L164.29 7.99Q164.40 7.63 164.49 7.29L164.49 7.29L164.49 7.29Q164.58 6.94 164.67 6.54L164.67 6.54L164.67 6.54Q164.18 6.51 163.90 6.27L163.90 6.27L163.90 6.27Q163.62 6.02 163.62 5.63L163.62 5.63L163.62 5.63Q163.62 5.52 163.65 5.36L163.65 5.36L163.65 5.36Q163.69 5.21 163.73 5.10L163.73 5.10L163.73 5.10Q164.01 5.14 164.27 5.15L164.27 5.15L164.27 5.15Q164.53 5.17 164.95 5.17L164.95 5.17L164.95 5.17Q165.83 5.17 166.60 5.12L166.60 5.12L166.60 5.12Q167.37 5.07 167.99 5.01L167.99 5.01L167.99 5.01Q168.62 4.96 169.06 4.91L169.06 4.91L169.06 4.91Q169.51 4.86 169.75 4.86L169.75 4.86L169.75 4.86Q170.07 4.86 170.32 5.19L170.32 5.19L170.32 5.19Q170.58 5.53 170.70 6.15L170.70 6.15L170.70 6.15Q170.27 6.10 170.00 6.09L170.00 6.09L170.00 6.09Q169.72 6.08 169.51 6.08L169.51 6.08L169.51 6.08Q168.74 6.08 168.10 6.15L168.10 6.15L168.10 6.15Q167.47 6.23 166.88 6.31L166.88 6.31L166.88 6.31Q166.80 6.44 166.69 6.64L166.69 6.64L166.69 6.64Q166.59 6.83 166.42 7.18L166.42 7.18L166.42 7.18Q166.25 7.53 166.00 8.06L166.00 8.06L166.00 8.06Q165.76 8.60 165.41 9.39L165.41 9.39L165.41 9.39Q165.94 9.31 166.41 9.26L166.41 9.26L166.41 9.26Q166.88 9.21 167.20 9.21ZM186.47 7.46L186.47 7.46L186.47 7.46Q186.47 8.13 186.17 8.73L186.17 8.73L186.17 8.73Q185.86 9.32 185.33 9.79L185.33 9.79L185.33 9.79Q184.80 10.26 184.09 10.58L184.09 10.58L184.09 10.58Q183.37 10.91 182.53 11.02L182.53 11.02L182.53 11.02Q182.74 11.65 183.04 12.31L183.04 12.31L183.04 12.31Q183.34 12.98 183.69 13.59L183.69 13.59L183.69 13.59Q184.04 14.21 184.42 14.73L184.42 14.73L184.42 14.73Q184.80 15.25 185.16 15.58L185.16 15.58L185.16 15.58Q185.09 15.72 184.96 15.86L184.96 15.86L184.96 15.86Q184.83 16.00 184.65 16.12L184.65 16.12L184.65 16.12Q184.48 16.24 184.29 16.32L184.29 16.32L184.29 16.32Q184.10 16.39 183.93 16.39L183.93 16.39L183.93 16.39Q183.62 16.39 183.34 16.10L183.34 16.10L183.34 16.10Q183.06 15.81 182.78 15.17L182.78 15.17L182.78 15.17Q182.49 14.53 182.18 13.52L182.18 13.52L182.18 13.52Q181.86 12.50 181.48 11.07L181.48 11.07L181.48 11.07Q181.33 11.07 181.17 11.07L181.17 11.07L181.17 11.07Q181.02 11.07 180.94 11.05L180.94 11.05L180.94 11.05Q180.84 10.99 180.73 10.85L180.73 10.85L180.73 10.85Q180.35 11.66 180.05 12.38L180.05 12.38L180.05 12.38Q179.76 13.09 179.53 13.76L179.53 13.76L179.53 13.76Q179.30 14.42 179.12 15.04L179.12 15.04L179.12 15.04Q178.95 15.67 178.82 16.31L178.82 16.31L178.82 16.31Q178.35 16.20 178.00 15.90L178.00 15.90L178.00 15.90Q177.65 15.61 177.34 15.08L177.34 15.08L177.34 15.08Q177.39 14.95 177.46 14.83L177.46 14.83L177.46 14.83Q177.52 14.71 177.62 14.50L177.62 14.50L177.62 14.50Q177.72 14.28 177.86 13.94L177.86 13.94L177.86 13.94Q178.01 13.61 178.26 13.05L178.26 13.05L178.26 13.05Q178.50 12.49 178.84 11.68L178.84 11.68L178.84 11.68Q179.19 10.86 179.68 9.70L179.68 9.70L179.68 9.70Q179.90 9.18 180.06 8.79L180.06 8.79L180.06 8.79Q180.22 8.40 180.35 8.04L180.35 8.04L180.35 8.04Q180.47 7.69 180.58 7.33L180.58 7.33L180.58 7.33Q180.68 6.97 180.80 6.51L180.80 6.51L180.80 6.51Q180.15 6.73 179.60 7.01L179.60 7.01L179.60 7.01Q179.05 7.28 178.68 7.59L178.68 7.59L178.68 7.59Q178.56 7.50 178.42 7.34L178.42 7.34L178.42 7.34Q178.29 7.17 178.18 6.96L178.18 6.96L178.18 6.96Q178.07 6.76 177.98 6.55L177.98 6.55L177.98 6.55Q177.90 6.34 177.88 6.17L177.88 6.17L177.88 6.17Q178.30 5.89 178.91 5.66L178.91 5.66L178.91 5.66Q179.52 5.42 180.21 5.24L180.21 5.24L180.21 5.24Q180.89 5.07 181.61 4.97L181.61 4.97L181.61 4.97Q182.32 4.87 182.94 4.87L182.94 4.87L182.94 4.87Q184.62 4.87 185.54 5.56L185.54 5.56L185.54 5.56Q186.47 6.26 186.47 7.46ZM182.88 6.02L183.05 6.29L183.05 6.29Q182.95 6.41 182.74 6.79L182.74 6.79L182.74 6.79Q182.53 7.17 182.26 7.69L182.26 7.69L182.26 7.69Q181.99 8.22 181.69 8.83L181.69 8.83L181.69 8.83Q181.38 9.45 181.10 10.05L181.10 10.05L181.10 10.05Q182.15 10.05 183.04 9.86L183.04 9.86L183.04 9.86Q183.92 9.66 184.56 9.30L184.56 9.30L184.56 9.30Q185.21 8.95 185.56 8.46L185.56 8.46L185.56 8.46Q185.92 7.98 185.92 7.39L185.92 7.39L185.92 7.39Q185.92 6.69 185.42 6.32L185.42 6.32L185.42 6.32Q184.91 5.95 183.86 5.95L183.86 5.95L183.86 5.95Q183.62 5.95 183.39 5.97L183.39 5.97L183.39 5.97Q183.15 5.99 182.88 6.02L182.88 6.02ZM199.29 9.21L199.29 9.21L199.29 9.21Q199.75 9.21 200.01 9.46L200.01 9.46L200.01 9.46Q200.27 9.72 200.27 10.16L200.27 10.16L200.27 10.16Q200.27 10.28 200.25 10.39L200.25 10.39L200.25 10.39Q200.23 10.51 200.20 10.60L200.20 10.60L200.20 10.60Q200.02 10.57 199.79 10.55L199.79 10.55L199.79 10.55Q199.57 10.53 199.26 10.53L199.26 10.53L199.26 10.53Q198.66 10.53 198.04 10.63L198.04 10.63L198.04 10.63Q197.43 10.74 196.87 10.81L196.87 10.81L196.87 10.81Q196.55 11.55 196.28 12.24L196.28 12.24L196.28 12.24Q196.01 12.94 195.83 13.51L195.83 13.51L195.83 13.51Q195.64 14.08 195.53 14.50L195.53 14.50L195.53 14.50Q195.43 14.92 195.41 15.13L195.41 15.13L195.41 15.13Q196.55 14.90 197.70 14.73L197.70 14.73L197.70 14.73Q198.86 14.56 200.13 14.48L200.13 14.48L200.13 14.48Q200.28 14.71 200.39 14.99L200.39 14.99L200.39 14.99Q200.49 15.27 200.49 15.60L200.49 15.60L200.49 15.60Q200.49 15.68 200.49 15.78L200.49 15.78L200.49 15.78Q200.49 15.88 200.47 15.97L200.47 15.97L200.47 15.97Q200.07 15.96 199.64 15.95L199.64 15.95L199.64 15.95Q199.21 15.95 198.51 15.95L198.51 15.95L198.51 15.95Q198.04 15.95 197.63 15.97L197.63 15.97L197.63 15.97Q197.22 15.99 196.80 16.03L196.80 16.03L196.80 16.03Q196.38 16.07 195.91 16.14L195.91 16.14L195.91 16.14Q195.44 16.21 194.85 16.31L194.85 16.31L194.85 16.31Q194.21 16.06 193.61 15.08L193.61 15.08L193.61 15.08Q193.84 14.57 194.27 13.54L194.27 13.54L194.27 13.54Q194.70 12.52 195.36 10.79L195.36 10.79L195.36 10.79Q194.73 10.60 194.53 10.09L194.53 10.09L194.53 10.09Q194.60 10.02 194.94 9.92L194.94 9.92L194.94 9.92Q195.27 9.81 195.76 9.70L195.76 9.70L195.76 9.70Q195.97 9.16 196.12 8.75L196.12 8.75L196.12 8.75Q196.27 8.34 196.38 7.99L196.38 7.99L196.38 7.99Q196.49 7.63 196.58 7.29L196.58 7.29L196.58 7.29Q196.67 6.94 196.76 6.54L196.76 6.54L196.76 6.54Q196.27 6.51 195.99 6.27L195.99 6.27L195.99 6.27Q195.71 6.02 195.71 5.63L195.71 5.63L195.71 5.63Q195.71 5.52 195.74 5.36L195.74 5.36L195.74 5.36Q195.78 5.21 195.82 5.10L195.82 5.10L195.82 5.10Q196.10 5.14 196.36 5.15L196.36 5.15L196.36 5.15Q196.62 5.17 197.04 5.17L197.04 5.17L197.04 5.17Q197.92 5.17 198.69 5.12L198.69 5.12L198.69 5.12Q199.46 5.07 200.08 5.01L200.08 5.01L200.08 5.01Q200.70 4.96 201.15 4.91L201.15 4.91L201.15 4.91Q201.60 4.86 201.84 4.86L201.84 4.86L201.84 4.86Q202.16 4.86 202.41 5.19L202.41 5.19L202.41 5.19Q202.66 5.53 202.79 6.15L202.79 6.15L202.79 6.15Q202.36 6.10 202.08 6.09L202.08 6.09L202.08 6.09Q201.81 6.08 201.60 6.08L201.60 6.08L201.60 6.08Q200.83 6.08 200.19 6.15L200.19 6.15L200.19 6.15Q199.56 6.23 198.97 6.31L198.97 6.31L198.97 6.31Q198.88 6.44 198.78 6.64L198.78 6.64L198.78 6.64Q198.67 6.83 198.51 7.18L198.51 7.18L198.51 7.18Q198.34 7.53 198.09 8.06L198.09 8.06L198.09 8.06Q197.85 8.60 197.50 9.39L197.50 9.39L197.50 9.39Q198.03 9.31 198.50 9.26L198.50 9.26L198.50 9.26Q198.97 9.21 199.29 9.21ZM220.00 16.24L220.00 16.24L220.00 16.24Q219.32 16.04 219.07 15.85L219.07 15.85L219.07 15.85Q218.81 15.65 218.81 15.36L218.81 15.36L218.81 15.36Q218.81 15.13 218.93 14.73L218.93 14.73L218.93 14.73Q219.06 14.32 219.30 13.77L219.30 13.77L219.30 13.77Q219.55 13.22 219.89 12.54L219.89 12.54L219.89 12.54Q220.23 11.87 220.67 11.10L220.67 11.10L220.67 11.10Q220.30 11.09 220.02 11.08L220.02 11.08L220.02 11.08Q219.73 11.07 219.55 11.07L219.55 11.07L219.55 11.07Q219.63 10.86 220.02 10.71L220.02 10.71L220.02 10.71Q220.42 10.56 221.06 10.44L221.06 10.44L221.06 10.44Q221.61 9.53 222.23 8.71L222.23 8.71L222.23 8.71Q222.85 7.88 223.48 7.19L223.48 7.19L223.48 7.19Q224.11 6.50 224.74 5.97L224.74 5.97L224.74 5.97Q225.37 5.45 225.95 5.14L225.95 5.14L225.95 5.14Q225.96 5.04 225.97 4.97L225.97 4.97L225.97 4.97Q225.97 4.90 225.97 4.87L225.97 4.87L225.97 4.87Q226.17 4.87 226.50 4.97L226.50 4.97L226.50 4.97Q226.83 5.07 227.14 5.21L227.14 5.21L227.14 5.21Q227.46 5.35 227.70 5.49L227.70 5.49L227.70 5.49Q227.95 5.64 227.98 5.74L227.98 5.74L227.98 5.74Q227.51 6.55 227.07 8.17L227.07 8.17L227.07 8.17Q226.62 9.79 226.32 12.04L226.32 12.04L226.32 12.04Q226.25 12.60 226.21 13.31L226.21 13.31L226.21 13.31Q226.16 14.03 226.16 14.91L226.16 14.91L226.16 14.91Q226.16 15.22 226.16 15.54L226.16 15.54L226.16 15.54Q226.16 15.86 226.18 16.21L226.18 16.21L226.18 16.21Q226.16 16.23 226.13 16.23L226.13 16.23L226.13 16.23Q226.10 16.23 226.02 16.23L226.02 16.23L226.02 16.23Q225.82 16.23 225.56 16.16L225.56 16.16L225.56 16.16Q225.30 16.10 225.06 16.01L225.06 16.01L225.06 16.01Q224.81 15.92 224.64 15.81L224.64 15.81L224.64 15.81Q224.46 15.69 224.42 15.61L224.42 15.61L224.42 15.61Q224.41 15.43 224.41 15.25L224.41 15.25L224.41 15.25Q224.41 15.08 224.41 14.88L224.41 14.88L224.41 14.88Q224.41 14.01 224.47 13.12L224.47 13.12L224.47 13.12Q224.53 12.22 224.69 11.27L224.69 11.27L224.69 11.27Q224.49 11.26 224.17 11.23L224.17 11.23L224.17 11.23Q223.85 11.21 223.45 11.20L223.45 11.20L223.45 11.20Q223.05 11.19 222.59 11.16L222.59 11.16L222.59 11.16Q222.14 11.14 221.70 11.13L221.70 11.13L221.70 11.13Q221.37 11.76 221.07 12.38L221.07 12.38L221.07 12.38Q220.78 13.01 220.57 13.64L220.57 13.64L220.57 13.64Q220.33 14.31 220.19 14.98L220.19 14.98L220.19 14.98Q220.04 15.65 220.00 16.24ZM225.40 7.83L225.40 7.83L225.40 7.83Q225.46 7.63 225.53 7.29L225.53 7.29L225.53 7.29Q225.61 6.94 225.68 6.57L225.68 6.57L225.68 6.57Q225.33 6.69 224.90 7.03L224.90 7.03L224.90 7.03Q224.48 7.36 224.02 7.86L224.02 7.86L224.02 7.86Q223.57 8.36 223.10 8.98L223.10 8.98L223.10 8.98Q222.63 9.60 222.19 10.30L222.19 10.30L222.19 10.30Q223.37 10.21 224.87 10.18L224.87 10.18L224.87 10.18Q224.98 9.59 225.11 9.01L225.11 9.01L225.11 9.01Q225.25 8.43 225.40 7.83ZM236.60 16.24L236.60 16.24L236.60 16.24Q235.80 16.00 235.52 15.79L235.52 15.79L235.52 15.79Q235.24 15.57 235.24 15.19L235.24 15.19L235.24 15.19Q235.24 14.77 235.44 14.01L235.44 14.01L235.44 14.01Q235.63 13.24 235.95 12.31L235.95 12.31L235.95 12.31Q236.26 11.37 236.67 10.35L236.67 10.35L236.67 10.35Q237.08 9.32 237.50 8.39L237.50 8.39L237.50 8.39Q237.92 7.45 238.32 6.67L238.32 6.67L238.32 6.67Q238.71 5.89 239.02 5.46L239.02 5.46L238.92 4.87L238.92 4.87Q239.12 4.87 239.47 4.97L239.47 4.97L239.47 4.97Q239.82 5.07 240.18 5.21L240.18 5.21L240.18 5.21Q240.53 5.35 240.81 5.49L240.81 5.49L240.81 5.49Q241.08 5.64 241.11 5.74L241.11 5.74L241.11 5.74Q241.04 6.08 241.00 6.76L241.00 6.76L241.00 6.76Q240.95 7.43 240.95 8.20L240.95 8.20L240.95 8.20Q240.95 9.73 241.07 11.19L241.07 11.19L241.07 11.19Q241.19 12.66 241.63 14.17L241.63 14.17L241.63 14.17Q241.85 13.05 242.11 11.94L242.11 11.94L242.11 11.94Q242.37 10.82 242.65 9.81L242.65 9.81L242.65 9.81Q242.93 8.79 243.21 7.92L243.21 7.92L243.21 7.92Q243.49 7.06 243.75 6.40L243.75 6.40L243.75 6.40Q244.01 5.75 244.23 5.38L244.23 5.38L244.23 5.38Q244.45 5.01 244.64 4.98L244.64 4.98L244.64 4.98Q244.79 5.01 244.97 5.10L244.97 5.10L244.97 5.10Q245.15 5.19 245.32 5.32L245.32 5.32L245.32 5.32Q245.49 5.45 245.63 5.60L245.63 5.60L245.63 5.60Q245.77 5.75 245.85 5.91L245.85 5.91L245.85 5.91Q245.41 6.09 244.97 6.76L244.97 6.76L244.97 6.76Q244.52 7.43 244.13 8.39L244.13 8.39L244.13 8.39Q243.73 9.35 243.38 10.47L243.38 10.47L243.38 10.47Q243.04 11.59 242.78 12.68L242.78 12.68L242.78 12.68Q242.52 13.76 242.38 14.69L242.38 14.69L242.38 14.69Q242.23 15.61 242.21 16.17L242.21 16.17L242.21 16.17Q242.21 16.20 242.23 16.21L242.23 16.21L242.23 16.21Q242.19 16.23 242.14 16.23L242.14 16.23L242.14 16.23Q242.09 16.23 242.05 16.23L242.05 16.23L242.05 16.23Q241.40 16.23 240.91 16.07L240.91 16.07L240.91 16.07Q240.41 15.90 240.25 15.61L240.25 15.61L240.25 15.61Q239.96 14.43 239.76 13.34L239.76 13.34L239.76 13.34Q239.57 12.25 239.44 11.16L239.44 11.16L239.44 11.16Q239.30 10.07 239.23 8.95L239.23 8.95L239.23 8.95Q239.15 7.84 239.11 6.62L239.11 6.62L239.11 6.62Q238.84 7.04 238.55 7.72L238.55 7.72L238.55 7.72Q238.25 8.40 237.97 9.21L237.97 9.21L237.97 9.21Q237.69 10.02 237.43 10.92L237.43 10.92L237.43 10.92Q237.17 11.82 236.98 12.67L236.98 12.67L236.98 12.67Q236.78 13.52 236.67 14.29L236.67 14.29L236.67 14.29Q236.56 15.05 236.56 15.61L236.56 15.61L236.56 15.61Q236.56 15.90 236.57 16.03L236.57 16.03L236.57 16.03Q236.57 16.16 236.60 16.24ZM257.08 10.35L257.08 10.35L257.08 10.35Q258.13 9.20 258.97 7.91L258.97 7.91L258.97 7.91Q259.80 6.62 260.51 5.01L260.51 5.01L260.51 5.01Q260.88 5.05 261.21 5.21L261.21 5.21L261.21 5.21Q261.55 5.36 261.74 5.56L261.74 5.56L261.74 5.56Q260.97 6.48 260.35 7.24L260.35 7.24L260.35 7.24Q259.73 7.99 259.21 8.66L259.21 8.66L259.21 8.66Q258.69 9.32 258.25 9.93L258.25 9.93L258.25 9.93Q257.81 10.54 257.39 11.16L257.39 11.16L257.39 11.16Q257.18 11.87 257.00 12.60L257.00 12.60L257.00 12.60Q256.82 13.33 256.68 13.99L256.68 13.99L256.68 13.99Q256.54 14.66 256.46 15.22L256.46 15.22L256.46 15.22Q256.38 15.79 256.38 16.20L256.38 16.20L256.38 16.20Q256.23 16.20 255.89 16.14L255.89 16.14L255.89 16.14Q255.56 16.07 255.21 15.99L255.21 15.99L255.21 15.99Q254.86 15.90 254.57 15.82L254.57 15.82L254.57 15.82Q254.28 15.74 254.23 15.68L254.23 15.68L254.23 15.68Q254.45 15.30 254.67 14.75L254.67 14.75L254.67 14.75Q254.88 14.20 255.09 13.59L255.09 13.59L255.09 13.59Q255.30 12.98 255.50 12.36L255.50 12.36L255.50 12.36Q255.70 11.73 255.86 11.20L255.86 11.20L255.86 11.20Q255.51 10.11 255.19 9.15L255.19 9.15L255.19 9.15Q254.86 8.19 254.55 7.41L254.55 7.41L254.55 7.41Q254.24 6.64 253.96 6.08L253.96 6.08L253.96 6.08Q253.68 5.52 253.43 5.22L253.43 5.22L253.43 5.22Q253.57 5.17 253.86 5.11L253.86 5.11L253.86 5.11Q254.14 5.05 254.49 5.00L254.49 5.00L254.49 5.00Q254.83 4.94 255.19 4.91L255.19 4.91L255.19 4.91Q255.54 4.87 255.82 4.86L255.82 4.86L255.82 4.86Q255.82 5.21 255.89 5.71L255.89 5.71L255.89 5.71Q255.95 6.22 256.05 6.79L256.05 6.79L256.05 6.79Q256.16 7.36 256.30 7.95L256.30 7.95L256.30 7.95Q256.44 8.54 256.58 9.03L256.58 9.03L256.58 9.03Q256.72 9.52 256.85 9.88L256.85 9.88L256.85 9.88Q256.98 10.23 257.08 10.35ZM270.27 6.69L270.27 6.69L270.27 6.69Q269.71 6.69 269.41 6.38L269.41 6.38L269.41 6.38Q269.11 6.06 269.11 5.61L269.11 5.61L269.11 5.61Q269.11 5.50 269.14 5.35L269.14 5.35L269.14 5.35Q269.18 5.19 269.23 5.08L269.23 5.08L269.23 5.08Q269.42 5.17 269.77 5.20L269.77 5.20L269.77 5.20Q270.13 5.24 270.61 5.24L270.61 5.24L270.61 5.24Q271.32 5.24 272.22 5.17L272.22 5.17L272.22 5.17Q273.13 5.11 273.95 5.04L273.95 5.04L273.95 5.04Q274.78 4.97 275.41 4.91L275.41 4.91L275.41 4.91Q276.04 4.84 276.22 4.84L276.22 4.84L276.22 4.84Q276.74 4.84 276.97 5.23L276.97 5.23L276.97 5.23Q277.20 5.61 277.31 6.26L277.31 6.26L277.31 6.26Q276.95 6.23 276.59 6.21L276.59 6.21L276.59 6.21Q276.23 6.19 275.98 6.19L275.98 6.19L275.98 6.19Q275.53 6.19 275.08 6.22L275.08 6.22L275.08 6.22Q274.62 6.24 274.16 6.30L274.16 6.30L274.16 6.30Q273.97 6.71 273.73 7.26L273.73 7.26L273.73 7.26Q273.49 7.81 273.26 8.41L273.26 8.41L273.26 8.41Q273.03 9.02 272.82 9.61L272.82 9.61L272.82 9.61Q272.61 10.21 272.45 10.68L272.45 10.68L272.45 10.68Q272.15 11.61 271.92 12.39L271.92 12.39L271.92 12.39Q271.68 13.17 271.51 13.85L271.51 13.85L271.51 13.85Q271.33 14.53 271.21 15.15L271.21 15.15L271.21 15.15Q271.08 15.76 270.98 16.35L270.98 16.35L270.98 16.35Q270.05 16.21 269.42 15.18L269.42 15.18L269.42 15.18Q269.53 14.74 269.69 14.23L269.69 14.23L269.69 14.23Q269.85 13.72 270.07 13.07L270.07 13.07L270.07 13.07Q270.28 12.42 270.58 11.59L270.58 11.59L270.58 11.59Q270.87 10.77 271.25 9.72L271.25 9.72L271.25 9.72Q271.39 9.32 271.54 8.90L271.54 8.90L271.54 8.90Q271.70 8.47 271.85 8.05L271.85 8.05L271.85 8.05Q271.99 7.63 272.11 7.24L272.11 7.24L272.11 7.24Q272.23 6.85 272.31 6.52L272.31 6.52L272.31 6.52Q271.73 6.59 271.20 6.64L271.20 6.64L271.20 6.64Q270.68 6.69 270.27 6.69ZM283.15 14.38L283.15 14.38L283.15 14.38Q283.15 13.87 283.31 13.07L283.31 13.07L283.31 13.07Q283.47 12.26 283.73 11.33L283.73 11.33L283.73 11.33Q283.99 10.40 284.33 9.43L284.33 9.43L284.33 9.43Q284.66 8.46 285.01 7.60L285.01 7.60L285.01 7.60Q285.36 6.75 285.70 6.10L285.70 6.10L285.70 6.10Q286.03 5.46 286.30 5.18L286.30 5.18L286.30 5.18Q286.44 5.19 286.67 5.29L286.67 5.29L286.67 5.29Q286.90 5.38 287.14 5.50L287.14 5.50L287.14 5.50Q287.38 5.63 287.57 5.78L287.57 5.78L287.57 5.78Q287.77 5.92 287.83 6.05L287.83 6.05L287.83 6.05Q287.42 6.41 287.02 7.15L287.02 7.15L287.02 7.15Q286.62 7.88 286.25 8.82L286.25 8.82L286.25 8.82Q285.88 9.76 285.56 10.80L285.56 10.80L285.56 10.80Q285.24 11.84 285.00 12.82L285.00 12.82L285.00 12.82Q284.76 13.80 284.63 14.64L284.63 14.64L284.63 14.64Q284.49 15.48 284.49 16.00L284.49 16.00L284.49 16.00Q284.49 16.24 284.54 16.30L284.54 16.30L284.54 16.30Q284.23 16.28 284.09 16.19L284.09 16.19L284.09 16.19Q283.95 16.10 283.87 16.00L283.87 16.00L283.87 16.00Q283.79 15.89 283.73 15.79L283.73 15.79L283.73 15.79Q283.67 15.68 283.54 15.62L283.54 15.62L283.54 15.62Q283.44 15.58 283.37 15.43L283.37 15.43L283.37 15.43Q283.30 15.27 283.26 15.09L283.26 15.09L283.26 15.09Q283.21 14.90 283.18 14.70L283.18 14.70L283.18 14.70Q283.15 14.50 283.15 14.38ZM299.92 16.21L299.92 16.21L299.92 16.21Q299.89 16.23 299.87 16.23L299.87 16.23L299.87 16.23Q299.84 16.23 299.75 16.23L299.75 16.23L299.75 16.23Q299.56 16.23 299.30 16.16L299.30 16.16L299.30 16.16Q299.04 16.10 298.80 16.01L298.80 16.01L298.80 16.01Q298.55 15.92 298.38 15.81L298.38 15.81L298.38 15.81Q298.20 15.69 298.16 15.61L298.16 15.61L298.16 15.61Q298.14 15.41 298.14 15.20L298.14 15.20L298.14 15.20Q298.14 14.99 298.14 14.80L298.14 14.80L298.14 14.80Q298.14 13.23 298.38 11.52L298.38 11.52L298.38 11.52Q298.61 9.81 299.14 7.83L299.14 7.83L299.14 7.83Q299.19 7.63 299.26 7.33L299.26 7.33L299.26 7.33Q299.32 7.03 299.39 6.68L299.39 6.68L299.39 6.68Q299.05 6.94 298.59 7.53L298.59 7.53L298.59 7.53Q298.13 8.11 297.62 8.90L297.62 8.90L297.62 8.90Q297.11 9.69 296.60 10.63L296.60 10.63L296.60 10.63Q296.09 11.58 295.67 12.55L295.67 12.55L295.67 12.55Q295.25 13.52 294.95 14.48L294.95 14.48L294.95 14.48Q294.64 15.43 294.57 16.24L294.57 16.24L294.57 16.24Q293.90 16.04 293.64 15.85L293.64 15.85L293.64 15.85Q293.38 15.65 293.38 15.37L293.38 15.37L293.38 15.37Q293.38 15.12 293.54 14.66L293.54 14.66L293.54 14.66Q293.69 14.20 293.97 13.57L293.97 13.57L293.97 13.57Q294.25 12.94 294.66 12.16L294.66 12.16L294.66 12.16Q295.06 11.38 295.55 10.49L295.55 10.49L295.55 10.49Q296.11 9.46 296.65 8.57L296.65 8.57L296.65 8.57Q297.19 7.67 297.71 6.94L297.71 6.94L297.71 6.94Q298.23 6.22 298.73 5.68L298.73 5.68L298.73 5.68Q299.22 5.15 299.71 4.87L299.71 4.87L299.71 4.87Q299.91 4.87 300.24 4.97L300.24 4.97L300.24 4.97Q300.57 5.07 300.88 5.21L300.88 5.21L300.88 5.21Q301.20 5.35 301.44 5.49L301.44 5.49L301.44 5.49Q301.69 5.64 301.71 5.74L301.71 5.74L301.71 5.74Q301.52 6.13 301.25 6.92L301.25 6.92L301.25 6.92Q300.99 7.70 300.71 8.69L300.71 8.69L300.71 8.69Q300.44 9.69 300.20 10.80L300.20 10.80L300.20 10.80Q299.95 11.91 299.81 12.94L299.81 12.94L299.81 12.94Q300.13 12.17 300.56 11.33L300.56 11.33L300.56 11.33Q300.99 10.50 301.46 9.68L301.46 9.68L301.46 9.68Q301.94 8.86 302.44 8.09L302.44 8.09L302.44 8.09Q302.93 7.32 303.41 6.69L303.41 6.69L303.41 6.69Q303.88 6.05 304.30 5.57L304.30 5.57L304.30 5.57Q304.71 5.10 305.03 4.87L305.03 4.87L305.03 4.87Q305.23 4.87 305.56 4.97L305.56 4.97L305.56 4.97Q305.89 5.07 306.20 5.21L306.20 5.21L306.20 5.21Q306.52 5.35 306.76 5.49L306.76 5.49L306.76 5.49Q307.01 5.64 307.03 5.74L307.03 5.74L307.03 5.74Q306.59 6.54 306.25 7.69L306.25 7.69L306.25 7.69Q305.91 8.83 305.68 10.09L305.68 10.09L305.68 10.09Q305.45 11.35 305.33 12.59L305.33 12.59L305.33 12.59Q305.21 13.83 305.21 14.81L305.21 14.81L305.21 14.81Q305.21 15.13 305.21 15.48L305.21 15.48L305.21 15.48Q305.21 15.83 305.24 16.21L305.24 16.21L305.24 16.21Q305.05 16.21 304.77 16.16L304.77 16.16L304.77 16.16Q304.50 16.11 304.24 16.03L304.24 16.03L304.24 16.03Q303.98 15.95 303.77 15.84L303.77 15.84L303.77 15.84Q303.56 15.74 303.48 15.61L303.48 15.61L303.48 15.61Q303.46 15.41 303.46 15.20L303.46 15.20L303.46 15.20Q303.46 14.99 303.46 14.80L303.46 14.80L303.46 14.80Q303.46 13.23 303.70 11.52L303.70 11.52L303.70 11.52Q303.93 9.81 304.46 7.83L304.46 7.83L304.46 7.83Q304.51 7.63 304.58 7.29L304.58 7.29L304.58 7.29Q304.65 6.96 304.72 6.59L304.72 6.59L304.72 6.59Q304.33 6.79 303.84 7.34L303.84 7.34L303.84 7.34Q303.34 7.90 302.83 8.69L302.83 8.69L302.83 8.69Q302.32 9.48 301.82 10.44L301.82 10.44L301.82 10.44Q301.32 11.41 300.92 12.41L300.92 12.41L300.92 12.41Q300.52 13.41 300.25 14.40L300.25 14.40L300.25 14.40Q299.98 15.39 299.92 16.21ZM319.98 9.21L319.98 9.21L319.98 9.21Q320.45 9.21 320.71 9.46L320.71 9.46L320.71 9.46Q320.96 9.72 320.96 10.16L320.96 10.16L320.96 10.16Q320.96 10.28 320.94 10.39L320.94 10.39L320.94 10.39Q320.92 10.51 320.89 10.60L320.89 10.60L320.89 10.60Q320.71 10.57 320.49 10.55L320.49 10.55L320.49 10.55Q320.26 10.53 319.96 10.53L319.96 10.53L319.96 10.53Q319.35 10.53 318.74 10.63L318.74 10.63L318.74 10.63Q318.12 10.74 317.56 10.81L317.56 10.81L317.56 10.81Q317.24 11.55 316.97 12.24L316.97 12.24L316.97 12.24Q316.71 12.94 316.52 13.51L316.52 13.51L316.52 13.51Q316.33 14.08 316.23 14.50L316.23 14.50L316.23 14.50Q316.12 14.92 316.11 15.13L316.11 15.13L316.11 15.13Q317.24 14.90 318.40 14.73L318.40 14.73L318.40 14.73Q319.55 14.56 320.82 14.48L320.82 14.48L320.82 14.48Q320.98 14.71 321.08 14.99L321.08 14.99L321.08 14.99Q321.19 15.27 321.19 15.60L321.19 15.60L321.19 15.60Q321.19 15.68 321.19 15.78L321.19 15.78L321.19 15.78Q321.19 15.88 321.16 15.97L321.16 15.97L321.16 15.97Q320.77 15.96 320.33 15.95L320.33 15.95L320.33 15.95Q319.90 15.95 319.20 15.95L319.20 15.95L319.20 15.95Q318.74 15.95 318.33 15.97L318.33 15.97L318.33 15.97Q317.91 15.99 317.49 16.03L317.49 16.03L317.49 16.03Q317.07 16.07 316.60 16.14L316.60 16.14L316.60 16.14Q316.13 16.21 315.55 16.31L315.55 16.31L315.55 16.31Q314.90 16.06 314.30 15.08L314.30 15.08L314.30 15.08Q314.54 14.57 314.97 13.54L314.97 13.54L314.97 13.54Q315.39 12.52 316.05 10.79L316.05 10.79L316.05 10.79Q315.42 10.60 315.22 10.09L315.22 10.09L315.22 10.09Q315.29 10.02 315.63 9.92L315.63 9.92L315.63 9.92Q315.97 9.81 316.46 9.70L316.46 9.70L316.46 9.70Q316.67 9.16 316.81 8.75L316.81 8.75L316.81 8.75Q316.96 8.34 317.07 7.99L317.07 7.99L317.07 7.99Q317.18 7.63 317.28 7.29L317.28 7.29L317.28 7.29Q317.37 6.94 317.45 6.54L317.45 6.54L317.45 6.54Q316.96 6.51 316.68 6.27L316.68 6.27L316.68 6.27Q316.40 6.02 316.40 5.63L316.40 5.63L316.40 5.63Q316.40 5.52 316.44 5.36L316.44 5.36L316.44 5.36Q316.47 5.21 316.51 5.10L316.51 5.10L316.51 5.10Q316.79 5.14 317.05 5.15L317.05 5.15L317.05 5.15Q317.31 5.17 317.73 5.17L317.73 5.17L317.73 5.17Q318.61 5.17 319.38 5.12L319.38 5.12L319.38 5.12Q320.15 5.07 320.78 5.01L320.78 5.01L320.78 5.01Q321.40 4.96 321.85 4.91L321.85 4.91L321.85 4.91Q322.29 4.86 322.53 4.86L322.53 4.86L322.53 4.86Q322.85 4.86 323.11 5.19L323.11 5.19L323.11 5.19Q323.36 5.53 323.48 6.15L323.48 6.15L323.48 6.15Q323.05 6.10 322.78 6.09L322.78 6.09L322.78 6.09Q322.50 6.08 322.29 6.08L322.29 6.08L322.29 6.08Q321.52 6.08 320.89 6.15L320.89 6.15L320.89 6.15Q320.25 6.23 319.66 6.31L319.66 6.31L319.66 6.31Q319.58 6.44 319.47 6.64L319.47 6.64L319.47 6.64Q319.37 6.83 319.20 7.18L319.20 7.18L319.20 7.18Q319.03 7.53 318.79 8.06L318.79 8.06L318.79 8.06Q318.54 8.60 318.19 9.39L318.19 9.39L318.19 9.39Q318.72 9.31 319.19 9.26L319.19 9.26L319.19 9.26Q319.66 9.21 319.98 9.21Z"></path></g></svg>